<svg width="329" height="327" viewBox="0 0 329 327" fill="none" xmlns="http://www.w3.org/2000/svg">
<mask id="path-1-inside-1_190_74" fill="white">
<path d="M147.991 -77.3926C123.551 -77.0552 122.509 -76.9877 118.83 -75.503C112.928 -73.0735 108.692 -69.7667 106.54 -65.7851C104.874 -62.7482 104.596 -61.3985 104.596 -56.8094C104.596 -52.1529 104.874 -50.8032 106.679 -47.3615C109.178 -42.5025 112.442 -39.938 120.01 -36.9686C133.827 -31.5023 134.799 -30.7599 134.799 -25.0237C134.799 -19.0849 132.577 -14.6308 127.578 -10.1093C120.01 -3.36069 108.831 1.16086 94.5281 3.2529C85.5713 4.60263 77.7948 4.53516 67.4493 2.9155C52.4519 0.620972 43.4256 -2.41589 35.302 -8.15219C29.2614 -12.3363 28.0116 -13.821 26.0674 -19.3548C22.7347 -28.5329 24.8871 -32.2446 35.4409 -35.9563C42.8702 -38.5208 45.6475 -40.0055 49.1191 -43.1098C53.3545 -46.9565 55.1597 -51.8155 54.8126 -58.4966C54.3266 -66.7299 50.7855 -71.5214 42.4536 -75.3006L38.6348 -77.0552L-23.5769 -77.2577C-74.124 -77.3926 -85.9275 -77.2577 -86.5524 -76.5153C-87.7328 -75.1656 -86.3441 37.9406 -85.0943 42.3947C-82.8031 50.358 -79.5397 55.0145 -74.124 57.9164C-70.7912 59.7386 -69.7497 59.941 -64.4728 59.941C-53.5024 59.8735 -48.5727 55.8918 -43.2958 42.8671C-40.0325 34.7013 -38.7133 32.6767 -36.2137 31.327C-33.9919 30.1797 -29.4787 30.4497 -25.035 31.9344C-15.245 35.2412 -6.2882 49.8181 -3.0943 68.0393C0.863373 89.9047 -6.01047 119.126 -17.7446 131.004C-21.2162 134.513 -22.466 135.255 -26.5626 136.47C-32.4643 138.225 -34.339 138.225 -37.1858 136.537C-39.6159 135.12 -41.2129 132.421 -43.9207 125.605C-47.6701 115.887 -51.0723 111.838 -57.5295 109.476C-63.1536 107.384 -70.7912 107.923 -75.3043 110.623C-79.262 112.985 -82.7336 117.439 -84.8166 122.838C-86.3441 126.752 -86.3441 126.954 -86.5524 184.115C-86.6219 215.631 -86.5524 242.153 -86.3441 243.03L-85.997 244.515H-25.035C43.1479 244.515 39.6068 244.245 45.5086 249.306C49.4663 252.68 51.0632 256.595 50.6466 261.926C50.0912 269.822 46.0641 273.938 35.5103 277.65C26.9701 280.62 23.2901 282.982 21.6237 286.558C19.5408 290.877 19.9574 295.399 22.8041 302.215C25.2343 307.816 31.4832 313.148 40.7177 317.467C48.5636 321.179 56.1318 323.203 68.352 324.89C78.0031 326.24 79.7389 326.307 88.6263 325.633C106.679 324.148 121.121 318.817 130.564 310.178C134.66 306.399 135.771 304.914 136.951 301.54C139.173 295.264 139.382 291.215 137.715 287.503C135.91 283.589 132.508 281.362 123.69 278.325C112.442 274.411 108.415 269.889 108.415 261.319C108.415 255.582 110.359 251.871 114.941 248.766C122.023 244.042 118.968 244.245 183.749 244.042C215.827 243.907 242.767 243.705 243.67 243.502L245.197 243.165V184.182C245.197 119.936 245.058 122.568 249.155 116.832C251.515 113.525 256.862 110.893 261.375 110.893C270.679 110.893 274.775 114.335 279.497 126.28C283.246 135.525 285.607 138.629 289.981 139.844C294.078 140.924 296.022 140.789 302.132 138.832C307.131 137.212 308.103 136.605 311.783 132.758C321.087 123.108 326.364 109.273 328.586 88.4875C330.738 68.1068 324.35 45.4315 312.963 33.554C308.797 29.1 308.034 28.6276 302.896 26.9404C296.3 24.8484 293.106 24.7809 289.148 26.5355C285.468 28.1552 283.038 31.7319 279.983 40.0327C277.414 46.8488 274.498 51.1004 270.887 53.1924C268.943 54.2722 267.277 54.5421 262.416 54.5421C256.862 54.5421 256.237 54.4072 253.46 52.5176C251.863 51.3703 249.641 48.9408 248.53 47.0512C244.572 40.1676 244.503 39.4928 244.503 -21.1095C244.503 -68.6195 244.364 -76.6503 243.531 -77.3926C242.489 -78.2025 207.773 -78.2025 147.991 -77.3926ZM240.198 -52.6253L239.99 -31.1649L239.851 -52.2204L239.642 -73.3435L223.465 -73.5459L207.356 -73.6809L223.881 -73.8834L240.337 -74.0183L240.198 -52.6253ZM-82.7336 -65.1102C-82.8725 -63.4905 -83.0113 -64.7728 -83.0113 -67.9446C-83.0113 -71.1165 -82.8725 -72.3987 -82.7336 -70.8465C-82.5948 -69.2268 -82.5948 -66.6624 -82.7336 -65.1102ZM36.0658 -73.006C35.6492 -72.5336 -72.2493 -72.5336 -72.6659 -73.006C-72.8742 -73.2085 -48.4339 -73.3435 -18.3001 -73.3435C11.8337 -73.3435 36.2741 -73.2085 36.0658 -73.006ZM128.758 -72.8711C128.272 -72.7361 127.3 -72.7361 126.675 -72.8711C125.981 -73.0735 126.398 -73.2085 127.509 -73.2085C128.689 -73.2085 129.175 -73.0735 128.758 -72.8711ZM136.674 -72.9386C136.465 -72.7361 135.841 -72.6686 135.355 -72.8711C134.799 -73.0735 135.007 -73.276 135.771 -73.276C136.535 -73.3435 136.951 -73.141 136.674 -72.9386ZM154.101 -72.8711C151.185 -72.7361 146.186 -72.7361 142.992 -72.8711C139.798 -72.9386 142.228 -73.0735 148.338 -73.0735C154.449 -73.0735 157.018 -72.9386 154.101 -72.8711ZM124.87 -72.2637C124.662 -72.0612 124.037 -71.9937 123.551 -72.1962C122.996 -72.3987 123.204 -72.6011 123.968 -72.6011C124.731 -72.6686 125.148 -72.4662 124.87 -72.2637ZM116.955 -69.2943C114.941 -68.1471 112.511 -66.1225 111.539 -64.7728C110.567 -63.3556 109.803 -62.4783 109.803 -62.8157C109.803 -64.8403 117.441 -71.3189 119.802 -71.3189C120.218 -71.3189 118.968 -70.3741 116.955 -69.2943ZM45.6475 -68.552C45.8558 -68.1471 45.3003 -68.3495 44.2588 -68.9569C43.2868 -69.6317 42.4536 -70.2391 42.4536 -70.4416C42.4536 -70.914 45.1614 -69.2943 45.6475 -68.552ZM49.1191 -64.4353C50.7161 -61.3985 49.9523 -61.5334 48.2165 -64.6378C47.3833 -66.055 47.0361 -67.1348 47.3833 -66.8648C47.7305 -66.6624 48.4942 -65.5826 49.1191 -64.4353ZM109.595 -60.3862C109.387 -59.8463 109.178 -60.0488 109.178 -60.7911C109.109 -61.5334 109.317 -61.9384 109.526 -61.6684C109.734 -61.466 109.803 -60.8586 109.595 -60.3862ZM50.6466 -56.742L50.4383 -53.4352L50.0912 -57.2819C49.8829 -59.3739 50.0217 -60.8586 50.2995 -60.5887C50.6466 -60.2512 50.7855 -58.5641 50.6466 -56.742ZM108.901 -55.9996C108.692 -55.3248 108.554 -55.7297 108.554 -56.8094C108.554 -57.9567 108.692 -58.4291 108.901 -58.0242C109.04 -57.5518 109.04 -56.607 108.901 -55.9996ZM110.081 -51.4106C110.428 -49.9259 110.359 -49.6559 109.803 -50.3983C109.456 -50.9382 109.109 -52.0179 109.109 -52.6928C109.109 -54.4474 109.526 -53.9076 110.081 -51.4106ZM49.5357 -50.9382C48.9802 -50.3983 48.9108 -50.6682 49.1885 -51.8155C49.4663 -52.6928 49.744 -53.0302 49.9523 -52.4904C50.0912 -52.0179 49.8829 -51.2756 49.5357 -50.9382ZM47.8693 -47.5639C46.8278 -46.0117 40.0234 -41.6252 38.6348 -41.6252C38.2876 -41.6252 39.7457 -42.6374 42.037 -43.7847C44.2588 -44.9994 46.5501 -46.6191 47.1056 -47.4964C47.7305 -48.3737 48.3553 -49.0486 48.4942 -49.0486C48.7025 -49.0486 48.4248 -48.3737 47.8693 -47.5639ZM116.399 -43.3798C116.816 -43.1098 116.469 -43.1098 115.705 -43.5147C114.941 -43.9196 113.553 -45.0669 112.581 -46.1467L110.845 -48.0363L113.275 -46.0117C114.594 -44.9319 116.052 -43.7172 116.399 -43.3798ZM-82.0393 -10.7841C-82.1087 -4.17053 -82.1782 -9.43442 -82.1782 -22.3917C-82.2476 -35.4164 -82.1087 -40.8153 -82.0393 -34.4042C-81.9004 -28.0605 -81.9004 -17.3977 -82.0393 -10.7841ZM36.8989 -40.9503C36.3435 -40.6129 35.5797 -40.2754 35.1631 -40.2754C34.816 -40.2754 34.9548 -40.6129 35.5103 -40.9503C36.0658 -41.2877 36.8989 -41.6252 37.2461 -41.6252C37.6627 -41.6252 37.4544 -41.2877 36.8989 -40.9503ZM31.3443 -38.9257C30.7889 -38.5883 30.0251 -38.2509 29.6085 -38.2509C29.2614 -38.2509 29.4002 -38.5883 29.9557 -38.9257C30.5111 -39.2632 31.3443 -39.6006 31.6915 -39.6006C32.1081 -39.6006 31.8998 -39.2632 31.3443 -38.9257ZM133.549 -36.2938C135.285 -35.214 136.951 -33.9318 137.299 -33.3919C137.576 -32.9195 137.229 -32.987 136.465 -33.6618C135.771 -34.2692 133.758 -35.5514 132.022 -36.4962C130.286 -37.441 129.244 -38.2509 129.661 -38.2509C130.008 -38.2509 131.813 -37.3735 133.549 -36.2938ZM25.5814 -36.0238C24.4705 -35.214 23.0124 -33.7968 22.2486 -32.852C21.0683 -31.5023 20.9989 -31.4348 21.5543 -32.5821C22.3181 -34.0667 26.2063 -37.576 27.0395 -37.576C27.3172 -37.576 26.6229 -36.9012 25.5814 -36.0238ZM20.7211 -29.3427C20.5128 -28.8029 20.3045 -29.0053 20.3045 -29.7477C20.2351 -30.49 20.4434 -30.8949 20.6517 -30.625C20.86 -30.4225 20.9294 -29.8151 20.7211 -29.3427ZM139.451 -27.993C139.243 -27.4531 139.034 -27.6556 139.034 -28.3979C138.965 -29.1403 139.173 -29.5452 139.382 -29.2752C139.59 -29.0728 139.659 -28.4654 139.451 -27.993ZM20.0268 -25.631C19.8185 -24.9561 19.6796 -25.3611 19.6796 -26.4408C19.6796 -27.5881 19.8185 -28.0605 20.0268 -27.6556C20.1657 -27.1832 20.1657 -26.2384 20.0268 -25.631ZM139.451 -20.5696C139.243 -20.0972 139.104 -20.4346 139.104 -21.3794C139.104 -22.3242 139.243 -22.6616 139.451 -22.2567C139.59 -21.7843 139.59 -20.9745 139.451 -20.5696ZM20.7211 -20.5696C20.5128 -20.0297 20.3045 -20.2321 20.3045 -20.9745C20.2351 -21.7168 20.4434 -22.1217 20.6517 -21.8518C20.86 -21.6494 20.9294 -21.042 20.7211 -20.5696ZM22.5958 -16.2505C22.8041 -15.7106 22.7347 -15.4406 22.3181 -15.6431C21.9015 -15.8456 21.6237 -16.318 21.6237 -16.7229C21.6237 -17.6677 22.1098 -17.4652 22.5958 -16.2505ZM23.7067 -13.2811C24.1233 -12.5388 24.2622 -11.9314 24.1233 -11.9314C23.915 -11.9314 23.429 -12.5388 23.0124 -13.2811C22.5958 -14.0234 22.4569 -14.6308 22.5958 -14.6308C22.8041 -14.6308 23.2901 -14.0234 23.7067 -13.2811ZM136.327 -12.1339C135.91 -11.459 134.105 -9.5694 132.299 -7.88223L128.967 -4.84537L132.577 -8.69208C134.591 -10.7841 136.188 -12.8762 136.188 -13.3486C136.188 -13.821 136.396 -14.0234 136.604 -13.821C136.813 -13.5511 136.674 -12.8087 136.327 -12.1339ZM30.7194 -6.06012C31.6221 -4.91287 31.6221 -4.91287 30.3028 -5.85767C29.5391 -6.39755 28.7753 -6.93744 28.6365 -7.00491C28.4976 -7.13989 28.6365 -7.2074 29.053 -7.2074C29.4697 -7.2074 30.2334 -6.66751 30.7194 -6.06012ZM240.129 -5.04785C239.92 -4.50797 239.712 -4.71042 239.712 -5.45276C239.642 -6.1951 239.851 -6.60001 240.059 -6.33008C240.267 -6.12762 240.337 -5.52023 240.129 -5.04785ZM128.55 -4.91287C128.55 -4.77789 127.995 -4.23801 127.37 -3.76559C126.259 -2.88831 126.189 -2.95578 127.092 -4.03555C127.995 -5.11533 128.55 -5.45276 128.55 -4.91287ZM37.5933 -1.40359C37.5933 -0.931213 33.5662 -3.09076 33.0801 -3.8331C32.8718 -4.17053 33.7745 -3.90057 35.0937 -3.09076C36.4824 -2.28091 37.5933 -1.53857 37.5933 -1.40359ZM240.129 -2.34842C239.92 -1.80853 239.712 -2.01099 239.712 -2.75333C239.642 -3.49567 239.851 -3.90057 240.059 -3.63065C240.267 -3.42819 240.337 -2.8208 240.129 -2.34842ZM40.0234 0.0810852C39.8151 0.283539 39.2597 0.0810852 38.7736 -0.391327C38.1487 -1.06619 38.2182 -1.13367 39.1902 -0.72876C39.8846 -0.526306 40.2317 -0.121368 40.0234 0.0810852ZM122.301 -0.796234C122.301 -0.661255 121.607 -0.188873 120.774 0.216064C119.246 0.958405 119.246 0.8909 120.496 -0.053894C121.954 -1.20114 122.301 -1.33612 122.301 -0.796234ZM240.129 0.351013C239.92 0.8909 239.712 0.688446 239.712 -0.053894C239.642 -0.796234 239.851 -1.20114 240.059 -0.931213C240.267 -0.72876 240.337 -0.121368 240.129 0.351013ZM42.8007 1.43079C42.5924 1.63324 42.037 1.43079 41.5509 0.958405C40.926 0.283539 40.9955 0.216064 41.9675 0.620972C42.6619 0.823425 43.009 1.22833 42.8007 1.43079ZM118.135 1.56577C117.58 1.9032 116.816 2.24063 116.399 2.24063C116.052 2.24063 116.191 1.9032 116.747 1.56577C117.302 1.22833 118.135 0.8909 118.482 0.8909C118.899 0.8909 118.691 1.22833 118.135 1.56577ZM48.0082 2.9155C48.5636 3.2529 48.7719 3.59033 48.3553 3.59033C48.0082 3.59033 47.175 3.2529 46.6195 2.9155C46.0641 2.57806 45.9252 2.24063 46.2724 2.24063C46.689 2.24063 47.4527 2.57806 48.0082 2.9155ZM113.275 3.59033C112.719 3.92776 111.747 4.19772 111.192 4.19772C110.498 4.19772 110.636 3.99527 111.539 3.59033C113.414 2.78052 114.525 2.78052 113.275 3.59033ZM52.5213 4.2652C53.4239 4.60263 53.4934 4.87256 52.8685 4.87256C52.313 4.87256 51.2021 4.60263 50.4383 4.2652C49.5357 3.92776 49.4663 3.65784 50.0912 3.65784C50.6466 3.65784 51.7576 3.92776 52.5213 4.2652ZM240.129 5.07504C239.92 5.61493 239.712 5.41245 239.712 4.6701C239.642 3.92776 239.851 3.52286 240.059 3.79279C240.267 3.99527 240.337 4.60263 240.129 5.07504ZM56.1318 5.34497C55.9235 5.54742 55.2986 5.61493 54.8126 5.41245C54.2571 5.20999 54.4654 5.00754 55.2292 5.00754C55.993 4.94006 56.4095 5.14252 56.1318 5.34497ZM58.9091 6.01984C58.7008 6.22229 58.0759 6.28976 57.5899 6.08731C57.0344 5.88486 57.2427 5.6824 58.0065 5.6824C58.7702 5.61493 59.1868 5.81738 58.9091 6.01984ZM105.429 6.01984C105.221 6.22229 104.596 6.28976 104.11 6.08731C103.554 5.88486 103.763 5.6824 104.526 5.6824C105.29 5.61493 105.707 5.81738 105.429 6.01984ZM63.0751 6.6947C62.8668 6.89716 62.2419 6.96463 61.7559 6.76218C61.2004 6.55972 61.4087 6.35727 62.1725 6.35727C62.9362 6.28976 63.3528 6.49222 63.0751 6.6947ZM102.652 6.6947C102.443 6.89716 101.819 6.96463 101.333 6.76218C100.777 6.55972 100.985 6.35727 101.749 6.35727C102.513 6.28976 102.929 6.49222 102.652 6.6947ZM240.129 8.78674C239.92 9.46161 239.781 9.0567 239.781 7.97693C239.781 6.82965 239.92 6.35727 240.129 6.76218C240.267 7.23459 240.267 8.17938 240.129 8.78674ZM67.6576 7.43704C67.1716 7.57199 66.1996 7.57199 65.5747 7.43704C64.8803 7.23459 65.2969 7.09961 66.4079 7.09961C67.5882 7.09961 68.0742 7.23459 67.6576 7.43704ZM99.5967 7.43704C99.1107 7.57199 98.1386 7.57199 97.5137 7.43704C96.8194 7.23459 97.236 7.09961 98.3469 7.09961C99.5273 7.09961 100.013 7.23459 99.5967 7.43704ZM72.5179 8.11188C72.0319 8.24686 71.1987 8.24686 70.7821 8.11188C70.2961 7.90942 70.6432 7.77448 71.6153 7.77448C72.5874 7.77448 72.9345 7.90942 72.5179 8.11188ZM95.4307 8.11188C94.9447 8.24686 93.9726 8.24686 93.3477 8.11188C92.6534 7.90942 93.07 7.77448 94.1809 7.77448C95.3613 7.77448 95.8473 7.90942 95.4307 8.11188ZM87.446 8.78674C85.6407 8.92172 82.5162 8.92172 80.5027 8.78674C78.4891 8.65176 79.9472 8.58429 83.766 8.58429C87.5848 8.58429 89.2512 8.65176 87.446 8.78674ZM240.129 13.8482C239.99 14.7255 239.851 14.1856 239.851 12.7009C239.781 11.2162 239.92 10.5414 240.129 11.1487C240.267 11.8236 240.267 13.0384 240.129 13.8482ZM240.129 17.2225C239.92 17.7624 239.712 17.5599 239.712 16.8176C239.642 16.0752 239.851 15.6703 240.059 15.9402C240.267 16.1427 240.337 16.7501 240.129 17.2225ZM-81.345 33.7565C-81.4144 36.6584 -81.5533 34.2964 -81.5533 28.5601C-81.5533 22.8238 -81.4144 20.4618 -81.345 23.2962C-81.2061 26.1981 -81.2061 30.9221 -81.345 33.7565ZM240.129 19.9219C239.92 20.4618 239.712 20.2593 239.712 19.517C239.642 18.7747 239.851 18.3697 240.059 18.6397C240.267 18.8421 240.337 19.4495 240.129 19.9219ZM240.129 22.6213C239.92 23.1612 239.712 22.9588 239.712 22.2164C239.642 21.4741 239.851 21.0692 240.059 21.3391C240.267 21.5416 240.337 22.1489 240.129 22.6213ZM240.129 27.3453C239.99 28.2227 239.851 27.6828 239.851 26.1981C239.781 24.7134 239.92 24.0385 240.129 24.6459C240.267 25.3208 240.267 26.5355 240.129 27.3453ZM-34.1307 26.2656C-34.339 26.468 -34.9639 26.5355 -35.4499 26.3331C-36.0054 26.1306 -35.7971 25.9281 -35.0333 25.9281C-34.2696 25.8607 -33.853 26.0631 -34.1307 26.2656ZM-28.5067 26.3331C-29.201 26.468 -30.4508 26.468 -31.284 26.3331C-32.1866 26.1981 -31.6311 26.0631 -30.1036 26.0631C-28.5761 25.9956 -27.8818 26.1306 -28.5067 26.3331ZM-37.7412 27.3453C-38.505 27.7503 -40.1714 29.0325 -41.4906 30.1797L-43.9207 32.2718L-42.1849 30.1123C-40.588 28.0877 -38.505 26.6705 -37.0469 26.603C-36.6303 26.603 -36.9775 26.9404 -37.7412 27.3453ZM-25.1045 26.9404C-25.3128 27.1429 -25.9377 27.2104 -26.4237 27.0079C-26.9791 26.8055 -26.7709 26.603 -26.0071 26.603C-25.2433 26.5355 -24.8267 26.738 -25.1045 26.9404ZM-22.1189 27.8852C-21.5634 28.2227 -21.3551 28.5601 -21.7717 28.5601C-22.1189 28.5601 -22.952 28.2227 -23.5075 27.8852C-24.063 27.5478 -24.2018 27.2104 -23.8547 27.2104C-23.4381 27.2104 -22.6743 27.5478 -22.1189 27.8852ZM-14.4813 33.0816L-10.6625 36.9958L-14.8284 33.2841C-17.1197 31.2595 -19.1333 29.5049 -19.2721 29.3699C-19.411 29.3024 -19.2721 29.235 -18.925 29.235C-18.5778 29.235 -16.5642 30.9896 -14.4813 33.0816ZM240.129 30.7196C239.92 31.2595 239.712 31.0571 239.712 30.3147C239.642 29.5724 239.851 29.1674 240.059 29.4374C240.267 29.6399 240.337 30.2472 240.129 30.7196ZM295.397 29.7073C294.911 29.8423 294.078 29.8423 293.661 29.7073C293.175 29.5049 293.522 29.3699 294.494 29.3699C295.466 29.3699 295.814 29.5049 295.397 29.7073ZM289.495 31.7319C288.87 32.4068 287.759 34.1614 286.996 35.6461C286.162 37.1308 285.538 38.0756 285.468 37.8056C285.399 36.3884 289.217 30.5847 290.189 30.5847C290.398 30.5847 290.051 31.1245 289.495 31.7319ZM302.826 31.2595C304.076 32.0694 302.965 32.0694 301.09 31.2595C300.188 30.8546 300.049 30.6522 300.743 30.6522C301.299 30.6522 302.271 30.9221 302.826 31.2595ZM240.129 34.4314C239.92 35.1062 239.781 34.7013 239.781 33.6215C239.781 32.4743 239.92 32.0019 240.129 32.4068C240.267 32.8792 240.267 33.824 240.129 34.4314ZM305.951 32.6092C306.159 33.0142 305.881 33.0816 305.326 32.8792C304.076 32.4068 303.868 31.9344 304.84 31.9344C305.256 31.9344 305.742 32.2043 305.951 32.6092ZM240.823 38.8179C240.615 39.2903 240.476 38.9529 240.476 38.0081C240.476 37.0633 240.615 36.7259 240.823 37.1308C240.962 37.6032 240.962 38.413 240.823 38.8179ZM311.505 38.0081C312.2 38.7505 312.477 39.3578 312.13 39.3578C311.783 39.3578 311.089 38.7505 310.603 38.0081C310.117 37.2657 309.839 36.6584 309.978 36.6584C310.117 36.6584 310.811 37.2657 311.505 38.0081ZM-9.55154 38.4805C-8.64891 39.5603 -8.71835 39.6277 -9.75983 38.7505C-10.9402 37.8731 -11.2874 37.3333 -10.7319 37.3333C-10.593 37.3333 -10.0376 37.8731 -9.55154 38.4805ZM-46.9063 40.3701C-47.1146 40.9775 -47.4618 41.3149 -47.6007 41.1125C-47.809 40.91 -47.7395 40.5051 -47.4618 40.1002C-46.8369 39.0204 -46.4203 39.2228 -46.9063 40.3701ZM-80.6506 41.5174C-80.8589 42.0573 -81.0672 41.8548 -81.0672 41.1125C-81.1367 40.3701 -80.9284 39.9652 -80.7201 40.2351C-80.5118 40.4376 -80.4423 41.045 -80.6506 41.5174ZM241.517 42.1922C241.309 42.7321 241.101 42.5297 241.101 41.7873C241.031 41.045 241.239 40.64 241.448 40.91C241.656 41.1125 241.725 41.7198 241.517 42.1922ZM284.149 42.5297C283.316 43.8794 283.177 43.4745 283.802 41.7198C284.079 41.1125 284.427 40.775 284.565 40.9775C284.774 41.1125 284.565 41.8548 284.149 42.5297ZM-6.84366 42.7321C-6.42706 43.4745 -6.2882 44.0818 -6.42706 44.0818C-6.63536 44.0818 -7.12139 43.4745 -7.53799 42.7321C-7.95458 41.9898 -8.09345 41.3824 -7.95458 41.3824C-7.74628 41.3824 -7.26026 41.9898 -6.84366 42.7321ZM315.671 44.0818C316.296 45.1616 316.574 46.1064 316.435 46.1064C316.227 46.1064 315.602 45.1616 314.977 44.0818C314.352 42.9346 314.074 42.0573 314.213 42.0573C314.422 42.0573 315.046 42.9346 315.671 44.0818ZM-49.7531 47.2537C-50.5168 48.6709 -51.8361 50.4255 -52.7387 51.1678C-54.1968 52.3826 -54.1968 52.3826 -52.5998 50.4255C-51.6278 49.2783 -50.4474 47.3211 -49.8919 46.1739C-49.4059 45.0266 -48.8505 44.1493 -48.7116 44.3518C-48.5727 44.4867 -48.9893 45.769 -49.7531 47.2537ZM282.76 45.9039C281.927 47.2537 281.788 46.8488 282.413 45.0941C282.691 44.4867 283.038 44.1493 283.177 44.3518C283.385 44.4867 283.177 45.2291 282.76 45.9039ZM243.739 47.4561C244.503 49.0758 244.503 49.0758 243.531 47.861C242.906 47.1187 242.42 46.2414 242.42 45.8365C242.42 45.0266 242.767 45.364 243.739 47.4561ZM-78.0816 47.1862C-77.8733 47.726 -77.9428 47.996 -78.3594 47.7935C-78.776 47.5911 -79.0537 47.1187 -79.0537 46.7138C-79.0537 45.769 -78.5677 45.9714 -78.0816 47.1862ZM319.421 51.8427C319.421 52.1801 318.865 51.4378 318.101 50.1555C317.338 48.8733 316.782 47.4561 316.782 47.1187C316.782 46.7138 317.338 47.5236 318.101 48.8058C318.865 50.0881 319.421 51.4378 319.421 51.8427ZM-3.37202 49.8181C-3.37202 50.1555 -3.71919 50.0206 -4.06635 49.4807C-4.41352 48.9408 -4.76068 48.131 -4.76068 47.7935C-4.76068 47.3886 -4.41352 47.5911 -4.06635 48.131C-3.71919 48.6709 -3.37202 49.4132 -3.37202 49.8181ZM245.544 50.1555C245.753 50.493 245.683 50.8304 245.267 50.8304C244.919 50.8304 244.364 50.493 244.156 50.1555C243.947 49.7506 244.017 49.4807 244.433 49.4807C244.78 49.4807 245.336 49.7506 245.544 50.1555ZM279.289 52.0452C278.525 53.1249 277.344 54.4072 276.65 54.9471C276.025 55.4869 276.511 54.6096 277.83 52.99C280.469 49.7506 281.441 49.1433 279.289 52.0452ZM-74.5406 52.1801C-73.8462 52.9225 -73.4296 53.5298 -73.6379 53.5298C-73.8462 53.5298 -74.5406 52.9225 -75.2349 52.1801C-75.9292 51.4378 -76.3458 50.8304 -76.1375 50.8304C-75.9292 50.8304 -75.2349 51.4378 -74.5406 52.1801ZM-55.7243 53.8673C-56.4881 54.4072 -57.4601 54.8796 -57.8073 54.8796C-58.2239 54.8121 -57.8073 54.4072 -56.8352 53.8673C-54.6134 52.5851 -54.0579 52.6525 -55.7243 53.8673ZM-71.0689 54.7446C-71.2772 54.9471 -71.8327 54.7446 -72.3187 54.2722C-72.9436 53.5974 -72.8742 53.5298 -71.9021 53.9348C-71.2078 54.1372 -70.8606 54.5421 -71.0689 54.7446ZM-59.1265 55.2845C-59.3348 55.4869 -59.9597 55.5544 -60.4457 55.352C-61.0012 55.1495 -60.7929 54.9471 -60.0291 54.9471C-59.2654 54.8796 -58.8488 55.082 -59.1265 55.2845ZM321.504 57.9164C321.504 58.2538 321.226 58.1189 320.879 57.579C320.532 57.0391 320.254 56.0943 320.254 55.5544C320.254 54.4746 321.434 56.6342 321.504 57.9164ZM-63.223 56.0268C-63.9174 56.1618 -65.1671 56.1618 -66.0003 56.0268C-66.903 55.8918 -66.3475 55.7569 -64.82 55.7569C-63.2925 55.6894 -62.5981 55.8244 -63.223 56.0268ZM251.099 56.2293C251.307 56.6342 251.029 56.7017 250.474 56.4992C249.224 56.0268 249.016 55.5544 249.988 55.5544C250.405 55.5544 250.891 55.8244 251.099 56.2293ZM253.876 58.1189C253.668 58.3214 253.112 58.1189 252.626 57.6465C252.001 56.9716 252.071 56.9041 253.043 57.3091C253.737 57.5115 254.084 57.9164 253.876 58.1189ZM272.623 57.579C272.415 57.9164 271.79 58.2538 271.373 58.2538C270.887 58.2538 270.957 57.9839 271.582 57.579C272.901 56.7692 273.178 56.7692 272.623 57.579ZM-0.108688 59.7386C-0.316986 60.2784 -0.525284 60.076 -0.525284 59.3336C-0.594719 58.5913 -0.386421 58.1864 -0.178123 58.4563C0.0301743 58.6588 0.0996094 59.2661 -0.108688 59.7386ZM269.151 58.9287C268.388 59.2661 266.86 59.4686 265.68 59.4686C263.666 59.4011 263.666 59.4011 266.027 58.9287C269.429 58.2538 270.818 58.2538 269.151 58.9287ZM259.292 59.4011C258.806 59.5361 257.973 59.5361 257.556 59.4011C257.07 59.1987 257.417 59.0637 258.389 59.0637C259.361 59.0637 259.709 59.1987 259.292 59.4011ZM322.059 60.4134C321.851 60.9533 321.643 60.7508 321.643 60.0085C321.573 59.2661 321.781 58.8612 321.99 59.1312C322.198 59.3336 322.267 59.941 322.059 60.4134ZM0.58564 62.438C0.377342 62.9779 0.169044 62.7754 0.169044 62.0331C0.0996094 61.2907 0.307907 60.8858 0.516205 61.1558C0.724503 61.3582 0.793938 61.9656 0.58564 62.438ZM322.823 63.7202C322.615 64.2601 322.337 63.9227 322.059 63.0453C321.781 61.8981 321.851 61.6281 322.406 62.168C322.753 62.5055 322.962 63.2478 322.823 63.7202ZM1.27997 66.4871C1.07167 66.9595 0.9328 66.6221 0.9328 65.6773C0.9328 64.7325 1.07167 64.3951 1.27997 64.8C1.41883 65.2724 1.41883 66.0822 1.27997 66.4871ZM323.448 67.162C323.239 67.7019 323.031 67.4994 323.031 66.7571C322.962 66.0147 323.17 65.6098 323.378 65.8798C323.587 66.0822 323.656 66.6896 323.448 67.162ZM1.97429 70.1989C1.76599 70.8737 1.62713 70.4688 1.62713 69.389C1.62713 68.2418 1.76599 67.7693 1.97429 68.1743C2.11316 68.6467 2.11316 69.5915 1.97429 70.1989ZM324.142 72.2234C323.934 72.8983 323.795 72.4934 323.795 71.4136C323.795 70.2663 323.934 69.7939 324.142 70.1989C324.281 70.6712 324.281 71.616 324.142 72.2234ZM2.66862 86.3954C2.52975 88.9599 2.46032 86.8678 2.46032 81.8739C2.46032 76.8799 2.52975 74.7879 2.66862 77.2849C2.80749 79.8493 2.80749 83.8985 2.66862 86.3954ZM324.836 80.3217C324.628 80.9966 324.489 80.4567 324.489 79.1745C324.489 77.8922 324.628 77.3523 324.836 77.9597C324.975 78.6346 324.975 79.7143 324.836 80.3217ZM324.142 89.7697C323.934 90.4446 323.795 90.0397 323.795 88.9599C323.795 87.8126 323.934 87.3402 324.142 87.7451C324.281 88.2176 324.281 89.1624 324.142 89.7697ZM1.97429 94.4937C1.76599 95.1686 1.62713 94.7637 1.62713 93.6839C1.62713 92.5367 1.76599 92.0642 1.97429 92.4692C2.11316 92.9416 2.11316 93.8864 1.97429 94.4937ZM323.448 94.4937C323.239 95.1686 323.101 94.7637 323.101 93.6839C323.101 92.5367 323.239 92.0642 323.448 92.4692C323.587 92.9416 323.587 93.8864 323.448 94.4937ZM1.27997 98.8803C1.07167 99.3527 0.9328 99.0153 0.9328 98.0705C0.9328 97.1257 1.07167 96.7883 1.27997 97.1932C1.41883 97.6656 1.41883 98.4754 1.27997 98.8803ZM322.753 99.5552C322.545 100.028 322.406 99.6901 322.406 98.7453C322.406 97.8005 322.545 97.4631 322.753 97.868C322.892 98.3404 322.892 99.1503 322.753 99.5552ZM0.58564 102.929C0.377342 103.402 0.238472 103.064 0.238472 102.12C0.238472 101.175 0.377342 100.837 0.58564 101.242C0.724503 101.715 0.724503 102.525 0.58564 102.929ZM322.059 102.929C321.851 103.402 321.712 103.064 321.712 102.12C321.712 101.175 321.851 100.837 322.059 101.242C322.198 101.715 322.198 102.525 322.059 102.929ZM-0.108688 106.304C-0.316986 106.776 -0.455849 106.439 -0.455849 105.494C-0.455849 104.549 -0.316986 104.212 -0.108688 104.617C0.0301743 105.089 0.0301743 105.899 -0.108688 106.304ZM321.365 105.629C321.156 106.169 320.948 105.966 320.948 105.224C320.879 104.482 321.087 104.077 321.295 104.347C321.504 104.549 321.573 105.156 321.365 105.629ZM263.805 106.641C262.764 106.776 260.889 106.776 259.639 106.641C258.389 106.506 259.223 106.371 261.514 106.371C263.805 106.371 264.847 106.506 263.805 106.641ZM254.293 107.856C253.043 108.396 251.793 108.868 251.515 108.868C250.613 108.801 254.64 106.911 255.612 106.911C256.167 106.911 255.612 107.316 254.293 107.856ZM320.532 108.666C320.323 109.746 319.837 110.825 319.49 111.163C319.143 111.5 319.212 110.69 319.629 109.341C320.532 106.439 321.226 105.966 320.532 108.666ZM-0.803017 109.003C-1.01131 109.543 -1.21961 109.341 -1.21961 108.598C-1.28905 107.856 -1.08075 107.451 -0.872452 107.721C-0.664154 107.923 -0.594719 108.531 -0.803017 109.003ZM274.359 109.948C274.359 110.083 273.734 109.948 272.97 109.543C272.206 109.138 271.582 108.666 271.582 108.463C271.582 108.328 272.206 108.463 272.97 108.868C273.734 109.273 274.359 109.746 274.359 109.948ZM250.752 109.071C250.752 109.206 249.432 110.488 247.836 111.905L244.85 114.605L247.627 111.703C250.127 109.071 250.752 108.531 250.752 109.071ZM276.789 111.568C277.483 112.31 277.9 112.917 277.692 112.917C277.483 112.917 276.789 112.31 276.095 111.568C275.4 110.825 274.984 110.218 275.192 110.218C275.4 110.218 276.095 110.825 276.789 111.568ZM-63.5702 112.715C-64.4728 112.85 -66.0003 112.85 -67.0418 112.715C-68.1528 112.58 -67.389 112.445 -65.5143 112.445C-63.5702 112.445 -62.737 112.58 -63.5702 112.715ZM319.004 113.255C318.796 113.862 318.449 114.2 318.31 113.997C318.101 113.795 318.171 113.39 318.449 112.985C319.073 111.905 319.49 112.108 319.004 113.255ZM-70.0274 113.39C-70.5829 113.592 -71.6938 114.065 -72.4576 114.402C-73.8462 115.009 -73.8462 115.009 -72.527 113.997C-71.7632 113.39 -70.6523 112.917 -70.0969 112.985C-69.1248 112.985 -69.1248 113.052 -70.0274 113.39ZM-56.8352 114.267C-55.3771 115.009 -53.5024 116.562 -52.6693 117.776L-51.1417 120.003L-53.2247 117.844C-54.3356 116.629 -56.6269 115.009 -58.2933 114.267C-59.9597 113.525 -60.9317 112.917 -60.4457 112.917C-59.9597 112.917 -58.3627 113.525 -56.8352 114.267ZM279.289 114.739C280.191 115.819 280.122 115.887 279.08 115.009C278.386 114.537 277.83 113.997 277.83 113.862C277.83 113.322 278.386 113.66 279.289 114.739ZM-76.6235 118.046C-77.9428 119.733 -79.0537 121.421 -79.0537 121.825C-79.0537 122.23 -79.262 122.365 -79.4703 122.163C-79.9563 121.691 -78.2205 118.789 -76.0681 116.427C-73.7768 113.997 -74.0545 114.739 -76.6235 118.046ZM317.129 117.439C316.574 118.451 316.088 119.126 316.018 118.856C316.018 118.046 317.615 114.942 317.893 115.212C318.101 115.347 317.754 116.359 317.129 117.439ZM-3.99692 118.114C-4.83012 119.463 -4.96898 119.059 -4.34409 117.304C-4.06635 116.697 -3.71919 116.359 -3.58032 116.562C-3.37202 116.697 -3.58032 117.439 -3.99692 118.114ZM243.322 117.979C243.114 118.586 242.767 118.924 242.628 118.721C242.42 118.519 242.489 118.114 242.767 117.709C243.392 116.629 243.808 116.832 243.322 117.979ZM282.691 121.353C282.691 121.691 282.344 121.556 281.996 121.016C281.649 120.476 281.302 119.666 281.302 119.329C281.302 118.924 281.649 119.126 281.996 119.666C282.344 120.206 282.691 120.948 282.691 121.353ZM-6.14934 122.973C-8.09345 126.752 -8.57948 126.482 -6.7048 122.703C-5.8716 121.083 -5.10784 119.801 -4.89954 119.936C-4.76068 120.071 -5.31614 121.421 -6.14934 122.973ZM241.795 121.758C241.448 122.635 241.101 123.04 241.101 122.568C241.031 121.556 241.795 119.531 242.142 119.868C242.35 120.003 242.142 120.881 241.795 121.758ZM315.324 121.016C314.908 121.758 314.422 122.365 314.213 122.365C314.074 122.365 314.213 121.758 314.63 121.016C315.046 120.273 315.532 119.666 315.741 119.666C315.88 119.666 315.741 120.273 315.324 121.016ZM284.079 124.727C284.079 125.065 283.732 124.93 283.385 124.39C283.038 123.85 282.691 123.04 282.691 122.703C282.691 122.298 283.038 122.5 283.385 123.04C283.732 123.58 284.079 124.322 284.079 124.727ZM-80.3729 125.132C-80.7201 126.01 -81.0672 126.415 -81.0672 125.942C-81.1367 124.93 -80.3729 122.905 -80.0257 123.243C-79.8174 123.378 -80.0257 124.255 -80.3729 125.132ZM-48.5033 125.402C-48.5033 125.74 -48.8505 125.605 -49.1976 125.065C-49.5448 124.525 -49.8919 123.715 -49.8919 123.378C-49.8919 122.973 -49.5448 123.175 -49.1976 123.715C-48.8505 124.255 -48.5033 124.997 -48.5033 125.402ZM240.823 201.796C240.753 216.238 240.684 204.428 240.684 175.679C240.684 146.93 240.753 135.12 240.823 149.495C240.962 163.937 240.962 187.422 240.823 201.796ZM-9.20438 128.304C-9.75983 129.316 -10.9402 130.734 -11.7734 131.476L-13.4398 132.826L-11.9817 131.139C-11.1485 130.194 -10.107 128.777 -9.69041 127.899C-9.2738 127.089 -8.71835 126.415 -8.51005 126.415C-8.37119 126.415 -8.64891 127.224 -9.20438 128.304ZM311.852 126.617C311.852 126.752 311.158 127.427 310.325 128.169L308.728 129.451L310.047 127.899C311.297 126.482 311.852 126.077 311.852 126.617ZM-81.345 128.574C-81.5533 129.114 -81.7616 128.911 -81.7616 128.169C-81.831 127.427 -81.6227 127.022 -81.4144 127.292C-81.2061 127.494 -81.1367 128.102 -81.345 128.574ZM286.44 130.261C287.065 131.476 287.412 132.488 287.273 132.488C286.857 132.488 284.774 128.777 284.774 128.034C284.774 127.292 285.121 127.832 286.44 130.261ZM-45.8648 131.948C-44.2679 135.458 -44.4068 136.335 -45.9343 133.298C-47.0452 131.341 -48.2256 127.899 -47.6701 128.439C-47.4618 128.642 -46.6286 130.194 -45.8648 131.948ZM-82.0393 207.87C-82.1087 222.244 -82.1782 210.704 -82.1782 182.09C-82.1782 153.476 -82.1087 141.734 -82.0393 155.906C-81.9004 170.078 -81.9004 193.428 -82.0393 207.87ZM306.992 131.408C306.992 131.543 306.437 132.083 305.812 132.556C304.701 133.433 304.632 133.366 305.534 132.286C306.437 131.206 306.992 130.869 306.992 131.408ZM-13.0926 133.366C-13.0926 133.501 -14.4118 134.783 -16.0088 136.2L-18.9944 138.899L-16.2171 135.997C-13.7175 133.366 -13.0926 132.826 -13.0926 133.366ZM291.648 135.66C291.786 135.795 291.648 135.863 291.231 135.863C290.814 135.863 289.773 135.255 288.87 134.445L287.204 133.096L289.287 134.243C290.467 134.918 291.509 135.525 291.648 135.66ZM302.132 134.513C301.576 134.85 300.604 135.12 300.049 135.12C299.355 135.12 299.493 134.918 300.396 134.513C302.271 133.703 303.382 133.703 302.132 134.513ZM298.452 135.593C298.244 135.795 297.619 135.863 297.133 135.66C296.577 135.458 296.786 135.255 297.549 135.255C298.313 135.188 298.73 135.39 298.452 135.593ZM-43.643 136.537C-43.643 136.875 -43.7819 137.212 -43.9207 137.212C-44.129 137.212 -44.4762 136.875 -44.6845 136.537C-44.8928 136.132 -44.7539 135.863 -44.4068 135.863C-43.9902 135.863 -43.643 136.132 -43.643 136.537ZM294.286 136.267C294.078 136.47 293.453 136.537 292.967 136.335C292.411 136.132 292.62 135.93 293.383 135.93C294.147 135.863 294.564 136.065 294.286 136.267ZM-41.4906 139.034C-40.588 140.114 -40.6574 140.182 -41.6989 139.304C-42.3932 138.832 -42.9487 138.292 -42.9487 138.157C-42.9487 137.617 -42.3932 137.955 -41.4906 139.034ZM-20.0359 139.237C-20.5913 139.574 -21.3551 139.912 -21.7717 139.912C-22.1189 139.912 -21.98 139.574 -21.4245 139.237C-20.8691 138.899 -20.0359 138.562 -19.6887 138.562C-19.2721 138.562 -19.4804 138.899 -20.0359 139.237ZM-23.5075 140.587C-24.063 140.924 -25.035 141.194 -25.5905 141.194C-26.2848 141.194 -26.146 140.991 -25.2433 140.587C-23.3686 139.777 -22.2577 139.777 -23.5075 140.587ZM-30.5202 142.341C-29.8953 142.881 -35.7277 142.476 -37.0469 141.936C-37.8801 141.599 -36.9775 141.531 -34.6167 141.734C-32.5338 141.936 -30.6591 142.206 -30.5202 142.341ZM-27.1874 141.666C-27.3957 141.869 -28.0206 141.936 -28.5067 141.734C-29.0621 141.531 -28.8538 141.329 -28.0901 141.329C-27.3263 141.261 -26.9097 141.464 -27.1874 141.666ZM220.41 239.588C208.884 239.723 189.859 239.723 178.056 239.588C166.322 239.521 175.764 239.453 199.024 239.453C222.354 239.453 231.935 239.521 220.41 239.588ZM-2.12224 240.263C-16.9808 240.398 -41.1434 240.398 -55.9326 240.263C-70.7912 240.196 -58.6405 240.128 -29.0621 240.128C0.516205 240.128 12.6669 240.196 -2.12224 240.263ZM28.081 240.263C27.595 240.398 26.6229 240.398 25.998 240.263C25.3037 240.061 25.7203 239.926 26.8312 239.926C28.0116 239.926 28.4976 240.061 28.081 240.263ZM37.385 240.196C37.1767 240.398 36.5518 240.466 36.0658 240.263C35.5103 240.061 35.7186 239.858 36.4824 239.858C37.2461 239.791 37.6627 239.993 37.385 240.196ZM126.675 240.263C126.189 240.398 125.356 240.398 124.94 240.263C124.454 240.061 124.801 239.926 125.773 239.926C126.745 239.926 127.092 240.061 126.675 240.263ZM122.787 240.87C122.579 241.073 121.954 241.14 121.468 240.938C120.913 240.735 121.121 240.533 121.885 240.533C122.648 240.466 123.065 240.668 122.787 240.87ZM119.524 241.815C118.968 242.153 118.205 242.49 117.788 242.49C117.441 242.49 117.58 242.153 118.135 241.815C118.691 241.478 119.524 241.14 119.871 241.14C120.288 241.14 120.079 241.478 119.524 241.815ZM116.677 242.693C116.538 242.828 115.497 243.435 114.316 244.11L112.233 245.257L113.9 243.907C114.802 243.097 115.844 242.49 116.261 242.49C116.677 242.49 116.816 242.558 116.677 242.693ZM53.3545 250.791C53.91 251.871 54.1877 252.883 54.0488 253.085C53.8405 253.22 53.4934 252.748 53.2156 251.871C52.9379 251.061 51.4104 248.969 49.8829 247.282L47.0361 244.177L49.6746 246.539C51.1327 247.821 52.7296 249.779 53.3545 250.791ZM108.415 248.834C108.415 248.969 107.859 249.509 107.234 249.981C106.123 250.858 106.054 250.791 106.957 249.711C107.859 248.631 108.415 248.294 108.415 248.834ZM105.846 252.276C105.637 252.883 105.29 253.22 105.151 253.018C104.943 252.815 105.012 252.41 105.29 252.006C105.915 250.926 106.332 251.128 105.846 252.276ZM55.4375 262.533C55.2986 263.951 55.1597 262.938 55.1597 260.374C55.1597 257.742 55.2986 256.662 55.4375 257.809C55.5763 259.024 55.5763 261.184 55.4375 262.533ZM104.04 258.484C103.832 259.159 103.693 258.754 103.693 257.674C103.693 256.527 103.832 256.055 104.04 256.46C104.179 256.932 104.179 257.877 104.04 258.484ZM104.04 265.233C103.832 265.908 103.693 265.503 103.693 264.423C103.693 263.276 103.832 262.803 104.04 263.208C104.179 263.681 104.179 264.625 104.04 265.233ZM104.735 268.27C104.526 268.81 104.318 268.607 104.318 267.865C104.249 267.122 104.457 266.717 104.665 266.987C104.874 267.19 104.943 267.797 104.735 268.27ZM106.262 271.509C107.026 273.129 107.026 273.129 106.054 271.914C105.429 271.172 104.943 270.294 104.943 269.889C104.943 269.079 105.29 269.417 106.262 271.509ZM51.4798 273.736C51.4798 273.871 50.7855 274.546 49.9523 275.288L48.3553 276.57L49.6746 275.018C50.9244 273.601 51.4798 273.196 51.4798 273.736ZM113.275 278.46C114.178 279.135 114.733 279.607 114.455 279.607C113.414 279.607 109.248 276.57 108.415 275.221C107.72 274.208 107.998 274.276 109.526 275.626C110.636 276.57 112.303 277.853 113.275 278.46ZM48.0082 276.503C48.0082 276.638 47.4527 277.178 46.8278 277.65C45.7169 278.528 45.6475 278.46 46.5501 277.38C47.4527 276.3 48.0082 275.963 48.0082 276.503ZM41.7592 280.282C41.2038 280.62 40.44 280.957 40.0234 280.957C39.6763 280.957 39.8151 280.62 40.3706 280.282C40.926 279.945 41.7592 279.607 42.1064 279.607C42.523 279.607 42.3147 279.945 41.7592 280.282ZM117.094 280.822C116.885 281.024 116.33 280.822 115.844 280.35C115.219 279.675 115.288 279.607 116.261 280.012C116.955 280.215 117.302 280.62 117.094 280.822ZM38.2876 281.632C37.7321 281.969 36.9684 282.307 36.5518 282.307C36.2046 282.307 36.3435 281.969 36.8989 281.632C37.4544 281.294 38.2876 280.957 38.6348 280.957C39.0514 280.957 38.8431 281.294 38.2876 281.632ZM122.301 282.307C122.857 282.644 123.065 282.982 122.648 282.982C122.301 282.982 121.468 282.644 120.913 282.307C120.357 281.969 120.218 281.632 120.565 281.632C120.982 281.632 121.746 281.969 122.301 282.307ZM33.3579 283.252C32.6636 283.859 28.567 285.681 28.567 285.411C28.567 284.939 32.1775 283.049 33.0107 282.982C33.3579 282.982 33.4967 283.117 33.3579 283.252ZM127.856 284.331C128.411 284.669 128.62 285.006 128.203 285.006C127.856 285.006 127.023 284.669 126.467 284.331C125.912 283.994 125.773 283.656 126.12 283.656C126.537 283.656 127.3 283.994 127.856 284.331ZM132.786 287.436C133.41 288.178 132.924 288.043 131.536 287.031C130.286 286.153 129.244 285.344 129.244 285.209C129.244 284.669 131.883 286.356 132.786 287.436ZM27.8727 285.951C27.8727 286.086 27.3172 286.626 26.6923 287.098C25.5814 287.976 25.512 287.908 26.4146 286.828C27.3172 285.748 27.8727 285.411 27.8727 285.951ZM24.8871 292.902C24.6788 293.577 24.5399 293.172 24.5399 292.092C24.5399 290.945 24.6788 290.472 24.8871 290.877C25.026 291.35 25.026 292.295 24.8871 292.902ZM134.591 293.577C134.382 294.252 134.244 293.847 134.244 292.767C134.244 291.62 134.382 291.147 134.591 291.552C134.73 292.025 134.73 292.969 134.591 293.577ZM133.896 296.614C133.688 297.154 133.48 296.951 133.48 296.209C133.41 295.466 133.619 295.062 133.827 295.331C134.035 295.534 134.105 296.141 133.896 296.614ZM27.1784 300.19C27.1784 300.528 26.8312 300.393 26.484 299.853C26.1369 299.313 25.7897 298.503 25.7897 298.166C25.7897 297.761 26.1369 297.963 26.484 298.503C26.8312 299.043 27.1784 299.786 27.1784 300.19ZM132.716 300.325C131.952 301.473 131.952 301.473 132.299 300.325C132.508 299.651 132.716 298.706 132.786 298.301C132.786 297.693 132.924 297.693 133.133 298.301C133.341 298.773 133.133 299.651 132.716 300.325ZM30.2334 305.252C30.9972 306.197 30.65 305.994 29.4697 304.779C28.2199 303.565 27.1784 302.215 27.1784 301.743C27.1784 301.27 27.595 301.473 28.0116 302.215C28.4282 302.957 29.4002 304.307 30.2334 305.252ZM131.119 304.172C129.314 306.804 117.441 315.105 117.441 313.755C117.441 313.553 118.482 312.878 119.732 312.27C123.412 310.381 130.008 305.184 130.772 303.497C131.189 302.62 131.675 302.013 131.883 302.215C132.091 302.35 131.675 303.227 131.119 304.172ZM36.8989 310.448C36.8989 310.988 34.2605 309.301 33.3579 308.221C32.733 307.479 33.219 307.614 34.6771 308.626C35.8575 309.503 36.8989 310.313 36.8989 310.448ZM113.969 315.712C112.997 316.252 111.956 316.657 111.539 316.657C111.192 316.657 111.609 316.252 112.581 315.712C113.553 315.172 114.664 314.767 115.011 314.767C115.427 314.767 114.941 315.172 113.969 315.712ZM49.3968 316.05C49.9523 316.387 50.1606 316.724 49.744 316.724C49.3968 316.724 48.5636 316.387 48.0082 316.05C47.4527 315.712 47.3139 315.375 47.661 315.375C48.0776 315.375 48.8414 315.712 49.3968 316.05ZM53.91 317.399C54.8126 317.737 54.882 318.007 54.2571 318.007C53.7017 318.007 52.5907 317.737 51.827 317.399C50.9244 317.062 50.8549 316.792 51.4798 316.792C52.0353 316.792 53.1462 317.062 53.91 317.399ZM57.5205 318.479C57.3122 318.682 56.6873 318.749 56.2012 318.547C55.6458 318.344 55.8541 318.142 56.6178 318.142C57.3816 318.074 57.7982 318.277 57.5205 318.479ZM60.7144 319.221C60.2283 319.356 59.3951 319.356 58.9785 319.221C58.4925 319.019 58.8397 318.884 59.8117 318.884C60.7838 318.884 61.131 319.019 60.7144 319.221ZM103.346 319.154C103.138 319.356 102.513 319.424 102.027 319.221C101.471 319.019 101.68 318.817 102.443 318.817C103.207 318.749 103.624 318.952 103.346 319.154ZM64.8803 319.896C64.3943 320.031 63.4222 320.031 62.7973 319.896C62.103 319.694 62.5196 319.559 63.6305 319.559C64.8109 319.559 65.2969 319.694 64.8803 319.896ZM100.569 319.829C100.36 320.031 99.7355 320.099 99.2495 319.896C98.6941 319.694 98.9024 319.491 99.6661 319.491C100.43 319.424 100.846 319.626 100.569 319.829ZM69.7406 320.571C69.2546 320.706 68.2825 320.706 67.6576 320.571C66.9633 320.369 67.3799 320.234 68.4908 320.234C69.6712 320.234 70.1572 320.369 69.7406 320.571ZM97.5137 320.571C97.0277 320.706 96.0556 320.706 95.4307 320.571C94.7364 320.369 95.153 320.234 96.2639 320.234C97.4443 320.234 97.9303 320.369 97.5137 320.571ZM74.6009 321.246C74.1149 321.381 73.1428 321.381 72.5179 321.246C71.8236 321.044 72.2402 320.909 73.3511 320.909C74.5315 320.909 75.0175 321.044 74.6009 321.246ZM92.3063 321.246C91.6119 321.381 90.501 321.381 89.8761 321.246C89.1818 321.044 89.7372 320.909 91.0565 320.909C92.3757 320.909 92.9312 321.044 92.3063 321.246ZM84.6687 321.921C83.9743 322.056 82.8634 322.056 82.2385 321.921C81.5442 321.718 82.0996 321.583 83.4189 321.583C84.7381 321.583 85.2935 321.718 84.6687 321.921Z"/>
</mask>
<path d="M147.991 -77.3926C123.551 -77.0552 122.509 -76.9877 118.83 -75.503C112.928 -73.0735 108.692 -69.7667 106.54 -65.7851C104.874 -62.7482 104.596 -61.3985 104.596 -56.8094C104.596 -52.1529 104.874 -50.8032 106.679 -47.3615C109.178 -42.5025 112.442 -39.938 120.01 -36.9686C133.827 -31.5023 134.799 -30.7599 134.799 -25.0237C134.799 -19.0849 132.577 -14.6308 127.578 -10.1093C120.01 -3.36069 108.831 1.16086 94.5281 3.2529C85.5713 4.60263 77.7948 4.53516 67.4493 2.9155C52.4519 0.620972 43.4256 -2.41589 35.302 -8.15219C29.2614 -12.3363 28.0116 -13.821 26.0674 -19.3548C22.7347 -28.5329 24.8871 -32.2446 35.4409 -35.9563C42.8702 -38.5208 45.6475 -40.0055 49.1191 -43.1098C53.3545 -46.9565 55.1597 -51.8155 54.8126 -58.4966C54.3266 -66.7299 50.7855 -71.5214 42.4536 -75.3006L38.6348 -77.0552L-23.5769 -77.2577C-74.124 -77.3926 -85.9275 -77.2577 -86.5524 -76.5153C-87.7328 -75.1656 -86.3441 37.9406 -85.0943 42.3947C-82.8031 50.358 -79.5397 55.0145 -74.124 57.9164C-70.7912 59.7386 -69.7497 59.941 -64.4728 59.941C-53.5024 59.8735 -48.5727 55.8918 -43.2958 42.8671C-40.0325 34.7013 -38.7133 32.6767 -36.2137 31.327C-33.9919 30.1797 -29.4787 30.4497 -25.035 31.9344C-15.245 35.2412 -6.2882 49.8181 -3.0943 68.0393C0.863373 89.9047 -6.01047 119.126 -17.7446 131.004C-21.2162 134.513 -22.466 135.255 -26.5626 136.47C-32.4643 138.225 -34.339 138.225 -37.1858 136.537C-39.6159 135.12 -41.2129 132.421 -43.9207 125.605C-47.6701 115.887 -51.0723 111.838 -57.5295 109.476C-63.1536 107.384 -70.7912 107.923 -75.3043 110.623C-79.262 112.985 -82.7336 117.439 -84.8166 122.838C-86.3441 126.752 -86.3441 126.954 -86.5524 184.115C-86.6219 215.631 -86.5524 242.153 -86.3441 243.03L-85.997 244.515H-25.035C43.1479 244.515 39.6068 244.245 45.5086 249.306C49.4663 252.68 51.0632 256.595 50.6466 261.926C50.0912 269.822 46.0641 273.938 35.5103 277.65C26.9701 280.62 23.2901 282.982 21.6237 286.558C19.5408 290.877 19.9574 295.399 22.8041 302.215C25.2343 307.816 31.4832 313.148 40.7177 317.467C48.5636 321.179 56.1318 323.203 68.352 324.89C78.0031 326.24 79.7389 326.307 88.6263 325.633C106.679 324.148 121.121 318.817 130.564 310.178C134.66 306.399 135.771 304.914 136.951 301.54C139.173 295.264 139.382 291.215 137.715 287.503C135.91 283.589 132.508 281.362 123.69 278.325C112.442 274.411 108.415 269.889 108.415 261.319C108.415 255.582 110.359 251.871 114.941 248.766C122.023 244.042 118.968 244.245 183.749 244.042C215.827 243.907 242.767 243.705 243.67 243.502L245.197 243.165V184.182C245.197 119.936 245.058 122.568 249.155 116.832C251.515 113.525 256.862 110.893 261.375 110.893C270.679 110.893 274.775 114.335 279.497 126.28C283.246 135.525 285.607 138.629 289.981 139.844C294.078 140.924 296.022 140.789 302.132 138.832C307.131 137.212 308.103 136.605 311.783 132.758C321.087 123.108 326.364 109.273 328.586 88.4875C330.738 68.1068 324.35 45.4315 312.963 33.554C308.797 29.1 308.034 28.6276 302.896 26.9404C296.3 24.8484 293.106 24.7809 289.148 26.5355C285.468 28.1552 283.038 31.7319 279.983 40.0327C277.414 46.8488 274.498 51.1004 270.887 53.1924C268.943 54.2722 267.277 54.5421 262.416 54.5421C256.862 54.5421 256.237 54.4072 253.46 52.5176C251.863 51.3703 249.641 48.9408 248.53 47.0512C244.572 40.1676 244.503 39.4928 244.503 -21.1095C244.503 -68.6195 244.364 -76.6503 243.531 -77.3926C242.489 -78.2025 207.773 -78.2025 147.991 -77.3926ZM240.198 -52.6253L239.99 -31.1649L239.851 -52.2204L239.642 -73.3435L223.465 -73.5459L207.356 -73.6809L223.881 -73.8834L240.337 -74.0183L240.198 -52.6253ZM-82.7336 -65.1102C-82.8725 -63.4905 -83.0113 -64.7728 -83.0113 -67.9446C-83.0113 -71.1165 -82.8725 -72.3987 -82.7336 -70.8465C-82.5948 -69.2268 -82.5948 -66.6624 -82.7336 -65.1102ZM36.0658 -73.006C35.6492 -72.5336 -72.2493 -72.5336 -72.6659 -73.006C-72.8742 -73.2085 -48.4339 -73.3435 -18.3001 -73.3435C11.8337 -73.3435 36.2741 -73.2085 36.0658 -73.006ZM128.758 -72.8711C128.272 -72.7361 127.3 -72.7361 126.675 -72.8711C125.981 -73.0735 126.398 -73.2085 127.509 -73.2085C128.689 -73.2085 129.175 -73.0735 128.758 -72.8711ZM136.674 -72.9386C136.465 -72.7361 135.841 -72.6686 135.355 -72.8711C134.799 -73.0735 135.007 -73.276 135.771 -73.276C136.535 -73.3435 136.951 -73.141 136.674 -72.9386ZM154.101 -72.8711C151.185 -72.7361 146.186 -72.7361 142.992 -72.8711C139.798 -72.9386 142.228 -73.0735 148.338 -73.0735C154.449 -73.0735 157.018 -72.9386 154.101 -72.8711ZM124.87 -72.2637C124.662 -72.0612 124.037 -71.9937 123.551 -72.1962C122.996 -72.3987 123.204 -72.6011 123.968 -72.6011C124.731 -72.6686 125.148 -72.4662 124.87 -72.2637ZM116.955 -69.2943C114.941 -68.1471 112.511 -66.1225 111.539 -64.7728C110.567 -63.3556 109.803 -62.4783 109.803 -62.8157C109.803 -64.8403 117.441 -71.3189 119.802 -71.3189C120.218 -71.3189 118.968 -70.3741 116.955 -69.2943ZM45.6475 -68.552C45.8558 -68.1471 45.3003 -68.3495 44.2588 -68.9569C43.2868 -69.6317 42.4536 -70.2391 42.4536 -70.4416C42.4536 -70.914 45.1614 -69.2943 45.6475 -68.552ZM49.1191 -64.4353C50.7161 -61.3985 49.9523 -61.5334 48.2165 -64.6378C47.3833 -66.055 47.0361 -67.1348 47.3833 -66.8648C47.7305 -66.6624 48.4942 -65.5826 49.1191 -64.4353ZM109.595 -60.3862C109.387 -59.8463 109.178 -60.0488 109.178 -60.7911C109.109 -61.5334 109.317 -61.9384 109.526 -61.6684C109.734 -61.466 109.803 -60.8586 109.595 -60.3862ZM50.6466 -56.742L50.4383 -53.4352L50.0912 -57.2819C49.8829 -59.3739 50.0217 -60.8586 50.2995 -60.5887C50.6466 -60.2512 50.7855 -58.5641 50.6466 -56.742ZM108.901 -55.9996C108.692 -55.3248 108.554 -55.7297 108.554 -56.8094C108.554 -57.9567 108.692 -58.4291 108.901 -58.0242C109.04 -57.5518 109.04 -56.607 108.901 -55.9996ZM110.081 -51.4106C110.428 -49.9259 110.359 -49.6559 109.803 -50.3983C109.456 -50.9382 109.109 -52.0179 109.109 -52.6928C109.109 -54.4474 109.526 -53.9076 110.081 -51.4106ZM49.5357 -50.9382C48.9802 -50.3983 48.9108 -50.6682 49.1885 -51.8155C49.4663 -52.6928 49.744 -53.0302 49.9523 -52.4904C50.0912 -52.0179 49.8829 -51.2756 49.5357 -50.9382ZM47.8693 -47.5639C46.8278 -46.0117 40.0234 -41.6252 38.6348 -41.6252C38.2876 -41.6252 39.7457 -42.6374 42.037 -43.7847C44.2588 -44.9994 46.5501 -46.6191 47.1056 -47.4964C47.7305 -48.3737 48.3553 -49.0486 48.4942 -49.0486C48.7025 -49.0486 48.4248 -48.3737 47.8693 -47.5639ZM116.399 -43.3798C116.816 -43.1098 116.469 -43.1098 115.705 -43.5147C114.941 -43.9196 113.553 -45.0669 112.581 -46.1467L110.845 -48.0363L113.275 -46.0117C114.594 -44.9319 116.052 -43.7172 116.399 -43.3798ZM-82.0393 -10.7841C-82.1087 -4.17053 -82.1782 -9.43442 -82.1782 -22.3917C-82.2476 -35.4164 -82.1087 -40.8153 -82.0393 -34.4042C-81.9004 -28.0605 -81.9004 -17.3977 -82.0393 -10.7841ZM36.8989 -40.9503C36.3435 -40.6129 35.5797 -40.2754 35.1631 -40.2754C34.816 -40.2754 34.9548 -40.6129 35.5103 -40.9503C36.0658 -41.2877 36.8989 -41.6252 37.2461 -41.6252C37.6627 -41.6252 37.4544 -41.2877 36.8989 -40.9503ZM31.3443 -38.9257C30.7889 -38.5883 30.0251 -38.2509 29.6085 -38.2509C29.2614 -38.2509 29.4002 -38.5883 29.9557 -38.9257C30.5111 -39.2632 31.3443 -39.6006 31.6915 -39.6006C32.1081 -39.6006 31.8998 -39.2632 31.3443 -38.9257ZM133.549 -36.2938C135.285 -35.214 136.951 -33.9318 137.299 -33.3919C137.576 -32.9195 137.229 -32.987 136.465 -33.6618C135.771 -34.2692 133.758 -35.5514 132.022 -36.4962C130.286 -37.441 129.244 -38.2509 129.661 -38.2509C130.008 -38.2509 131.813 -37.3735 133.549 -36.2938ZM25.5814 -36.0238C24.4705 -35.214 23.0124 -33.7968 22.2486 -32.852C21.0683 -31.5023 20.9989 -31.4348 21.5543 -32.5821C22.3181 -34.0667 26.2063 -37.576 27.0395 -37.576C27.3172 -37.576 26.6229 -36.9012 25.5814 -36.0238ZM20.7211 -29.3427C20.5128 -28.8029 20.3045 -29.0053 20.3045 -29.7477C20.2351 -30.49 20.4434 -30.8949 20.6517 -30.625C20.86 -30.4225 20.9294 -29.8151 20.7211 -29.3427ZM139.451 -27.993C139.243 -27.4531 139.034 -27.6556 139.034 -28.3979C138.965 -29.1403 139.173 -29.5452 139.382 -29.2752C139.59 -29.0728 139.659 -28.4654 139.451 -27.993ZM20.0268 -25.631C19.8185 -24.9561 19.6796 -25.3611 19.6796 -26.4408C19.6796 -27.5881 19.8185 -28.0605 20.0268 -27.6556C20.1657 -27.1832 20.1657 -26.2384 20.0268 -25.631ZM139.451 -20.5696C139.243 -20.0972 139.104 -20.4346 139.104 -21.3794C139.104 -22.3242 139.243 -22.6616 139.451 -22.2567C139.59 -21.7843 139.59 -20.9745 139.451 -20.5696ZM20.7211 -20.5696C20.5128 -20.0297 20.3045 -20.2321 20.3045 -20.9745C20.2351 -21.7168 20.4434 -22.1217 20.6517 -21.8518C20.86 -21.6494 20.9294 -21.042 20.7211 -20.5696ZM22.5958 -16.2505C22.8041 -15.7106 22.7347 -15.4406 22.3181 -15.6431C21.9015 -15.8456 21.6237 -16.318 21.6237 -16.7229C21.6237 -17.6677 22.1098 -17.4652 22.5958 -16.2505ZM23.7067 -13.2811C24.1233 -12.5388 24.2622 -11.9314 24.1233 -11.9314C23.915 -11.9314 23.429 -12.5388 23.0124 -13.2811C22.5958 -14.0234 22.4569 -14.6308 22.5958 -14.6308C22.8041 -14.6308 23.2901 -14.0234 23.7067 -13.2811ZM136.327 -12.1339C135.91 -11.459 134.105 -9.5694 132.299 -7.88223L128.967 -4.84537L132.577 -8.69208C134.591 -10.7841 136.188 -12.8762 136.188 -13.3486C136.188 -13.821 136.396 -14.0234 136.604 -13.821C136.813 -13.5511 136.674 -12.8087 136.327 -12.1339ZM30.7194 -6.06012C31.6221 -4.91287 31.6221 -4.91287 30.3028 -5.85767C29.5391 -6.39755 28.7753 -6.93744 28.6365 -7.00491C28.4976 -7.13989 28.6365 -7.2074 29.053 -7.2074C29.4697 -7.2074 30.2334 -6.66751 30.7194 -6.06012ZM240.129 -5.04785C239.92 -4.50797 239.712 -4.71042 239.712 -5.45276C239.642 -6.1951 239.851 -6.60001 240.059 -6.33008C240.267 -6.12762 240.337 -5.52023 240.129 -5.04785ZM128.55 -4.91287C128.55 -4.77789 127.995 -4.23801 127.37 -3.76559C126.259 -2.88831 126.189 -2.95578 127.092 -4.03555C127.995 -5.11533 128.55 -5.45276 128.55 -4.91287ZM37.5933 -1.40359C37.5933 -0.931213 33.5662 -3.09076 33.0801 -3.8331C32.8718 -4.17053 33.7745 -3.90057 35.0937 -3.09076C36.4824 -2.28091 37.5933 -1.53857 37.5933 -1.40359ZM240.129 -2.34842C239.92 -1.80853 239.712 -2.01099 239.712 -2.75333C239.642 -3.49567 239.851 -3.90057 240.059 -3.63065C240.267 -3.42819 240.337 -2.8208 240.129 -2.34842ZM40.0234 0.0810852C39.8151 0.283539 39.2597 0.0810852 38.7736 -0.391327C38.1487 -1.06619 38.2182 -1.13367 39.1902 -0.72876C39.8846 -0.526306 40.2317 -0.121368 40.0234 0.0810852ZM122.301 -0.796234C122.301 -0.661255 121.607 -0.188873 120.774 0.216064C119.246 0.958405 119.246 0.8909 120.496 -0.053894C121.954 -1.20114 122.301 -1.33612 122.301 -0.796234ZM240.129 0.351013C239.92 0.8909 239.712 0.688446 239.712 -0.053894C239.642 -0.796234 239.851 -1.20114 240.059 -0.931213C240.267 -0.72876 240.337 -0.121368 240.129 0.351013ZM42.8007 1.43079C42.5924 1.63324 42.037 1.43079 41.5509 0.958405C40.926 0.283539 40.9955 0.216064 41.9675 0.620972C42.6619 0.823425 43.009 1.22833 42.8007 1.43079ZM118.135 1.56577C117.58 1.9032 116.816 2.24063 116.399 2.24063C116.052 2.24063 116.191 1.9032 116.747 1.56577C117.302 1.22833 118.135 0.8909 118.482 0.8909C118.899 0.8909 118.691 1.22833 118.135 1.56577ZM48.0082 2.9155C48.5636 3.2529 48.7719 3.59033 48.3553 3.59033C48.0082 3.59033 47.175 3.2529 46.6195 2.9155C46.0641 2.57806 45.9252 2.24063 46.2724 2.24063C46.689 2.24063 47.4527 2.57806 48.0082 2.9155ZM113.275 3.59033C112.719 3.92776 111.747 4.19772 111.192 4.19772C110.498 4.19772 110.636 3.99527 111.539 3.59033C113.414 2.78052 114.525 2.78052 113.275 3.59033ZM52.5213 4.2652C53.4239 4.60263 53.4934 4.87256 52.8685 4.87256C52.313 4.87256 51.2021 4.60263 50.4383 4.2652C49.5357 3.92776 49.4663 3.65784 50.0912 3.65784C50.6466 3.65784 51.7576 3.92776 52.5213 4.2652ZM240.129 5.07504C239.92 5.61493 239.712 5.41245 239.712 4.6701C239.642 3.92776 239.851 3.52286 240.059 3.79279C240.267 3.99527 240.337 4.60263 240.129 5.07504ZM56.1318 5.34497C55.9235 5.54742 55.2986 5.61493 54.8126 5.41245C54.2571 5.20999 54.4654 5.00754 55.2292 5.00754C55.993 4.94006 56.4095 5.14252 56.1318 5.34497ZM58.9091 6.01984C58.7008 6.22229 58.0759 6.28976 57.5899 6.08731C57.0344 5.88486 57.2427 5.6824 58.0065 5.6824C58.7702 5.61493 59.1868 5.81738 58.9091 6.01984ZM105.429 6.01984C105.221 6.22229 104.596 6.28976 104.11 6.08731C103.554 5.88486 103.763 5.6824 104.526 5.6824C105.29 5.61493 105.707 5.81738 105.429 6.01984ZM63.0751 6.6947C62.8668 6.89716 62.2419 6.96463 61.7559 6.76218C61.2004 6.55972 61.4087 6.35727 62.1725 6.35727C62.9362 6.28976 63.3528 6.49222 63.0751 6.6947ZM102.652 6.6947C102.443 6.89716 101.819 6.96463 101.333 6.76218C100.777 6.55972 100.985 6.35727 101.749 6.35727C102.513 6.28976 102.929 6.49222 102.652 6.6947ZM240.129 8.78674C239.92 9.46161 239.781 9.0567 239.781 7.97693C239.781 6.82965 239.92 6.35727 240.129 6.76218C240.267 7.23459 240.267 8.17938 240.129 8.78674ZM67.6576 7.43704C67.1716 7.57199 66.1996 7.57199 65.5747 7.43704C64.8803 7.23459 65.2969 7.09961 66.4079 7.09961C67.5882 7.09961 68.0742 7.23459 67.6576 7.43704ZM99.5967 7.43704C99.1107 7.57199 98.1386 7.57199 97.5137 7.43704C96.8194 7.23459 97.236 7.09961 98.3469 7.09961C99.5273 7.09961 100.013 7.23459 99.5967 7.43704ZM72.5179 8.11188C72.0319 8.24686 71.1987 8.24686 70.7821 8.11188C70.2961 7.90942 70.6432 7.77448 71.6153 7.77448C72.5874 7.77448 72.9345 7.90942 72.5179 8.11188ZM95.4307 8.11188C94.9447 8.24686 93.9726 8.24686 93.3477 8.11188C92.6534 7.90942 93.07 7.77448 94.1809 7.77448C95.3613 7.77448 95.8473 7.90942 95.4307 8.11188ZM87.446 8.78674C85.6407 8.92172 82.5162 8.92172 80.5027 8.78674C78.4891 8.65176 79.9472 8.58429 83.766 8.58429C87.5848 8.58429 89.2512 8.65176 87.446 8.78674ZM240.129 13.8482C239.99 14.7255 239.851 14.1856 239.851 12.7009C239.781 11.2162 239.92 10.5414 240.129 11.1487C240.267 11.8236 240.267 13.0384 240.129 13.8482ZM240.129 17.2225C239.92 17.7624 239.712 17.5599 239.712 16.8176C239.642 16.0752 239.851 15.6703 240.059 15.9402C240.267 16.1427 240.337 16.7501 240.129 17.2225ZM-81.345 33.7565C-81.4144 36.6584 -81.5533 34.2964 -81.5533 28.5601C-81.5533 22.8238 -81.4144 20.4618 -81.345 23.2962C-81.2061 26.1981 -81.2061 30.9221 -81.345 33.7565ZM240.129 19.9219C239.92 20.4618 239.712 20.2593 239.712 19.517C239.642 18.7747 239.851 18.3697 240.059 18.6397C240.267 18.8421 240.337 19.4495 240.129 19.9219ZM240.129 22.6213C239.92 23.1612 239.712 22.9588 239.712 22.2164C239.642 21.4741 239.851 21.0692 240.059 21.3391C240.267 21.5416 240.337 22.1489 240.129 22.6213ZM240.129 27.3453C239.99 28.2227 239.851 27.6828 239.851 26.1981C239.781 24.7134 239.92 24.0385 240.129 24.6459C240.267 25.3208 240.267 26.5355 240.129 27.3453ZM-34.1307 26.2656C-34.339 26.468 -34.9639 26.5355 -35.4499 26.3331C-36.0054 26.1306 -35.7971 25.9281 -35.0333 25.9281C-34.2696 25.8607 -33.853 26.0631 -34.1307 26.2656ZM-28.5067 26.3331C-29.201 26.468 -30.4508 26.468 -31.284 26.3331C-32.1866 26.1981 -31.6311 26.0631 -30.1036 26.0631C-28.5761 25.9956 -27.8818 26.1306 -28.5067 26.3331ZM-37.7412 27.3453C-38.505 27.7503 -40.1714 29.0325 -41.4906 30.1797L-43.9207 32.2718L-42.1849 30.1123C-40.588 28.0877 -38.505 26.6705 -37.0469 26.603C-36.6303 26.603 -36.9775 26.9404 -37.7412 27.3453ZM-25.1045 26.9404C-25.3128 27.1429 -25.9377 27.2104 -26.4237 27.0079C-26.9791 26.8055 -26.7709 26.603 -26.0071 26.603C-25.2433 26.5355 -24.8267 26.738 -25.1045 26.9404ZM-22.1189 27.8852C-21.5634 28.2227 -21.3551 28.5601 -21.7717 28.5601C-22.1189 28.5601 -22.952 28.2227 -23.5075 27.8852C-24.063 27.5478 -24.2018 27.2104 -23.8547 27.2104C-23.4381 27.2104 -22.6743 27.5478 -22.1189 27.8852ZM-14.4813 33.0816L-10.6625 36.9958L-14.8284 33.2841C-17.1197 31.2595 -19.1333 29.5049 -19.2721 29.3699C-19.411 29.3024 -19.2721 29.235 -18.925 29.235C-18.5778 29.235 -16.5642 30.9896 -14.4813 33.0816ZM240.129 30.7196C239.92 31.2595 239.712 31.0571 239.712 30.3147C239.642 29.5724 239.851 29.1674 240.059 29.4374C240.267 29.6399 240.337 30.2472 240.129 30.7196ZM295.397 29.7073C294.911 29.8423 294.078 29.8423 293.661 29.7073C293.175 29.5049 293.522 29.3699 294.494 29.3699C295.466 29.3699 295.814 29.5049 295.397 29.7073ZM289.495 31.7319C288.87 32.4068 287.759 34.1614 286.996 35.6461C286.162 37.1308 285.538 38.0756 285.468 37.8056C285.399 36.3884 289.217 30.5847 290.189 30.5847C290.398 30.5847 290.051 31.1245 289.495 31.7319ZM302.826 31.2595C304.076 32.0694 302.965 32.0694 301.09 31.2595C300.188 30.8546 300.049 30.6522 300.743 30.6522C301.299 30.6522 302.271 30.9221 302.826 31.2595ZM240.129 34.4314C239.92 35.1062 239.781 34.7013 239.781 33.6215C239.781 32.4743 239.92 32.0019 240.129 32.4068C240.267 32.8792 240.267 33.824 240.129 34.4314ZM305.951 32.6092C306.159 33.0142 305.881 33.0816 305.326 32.8792C304.076 32.4068 303.868 31.9344 304.84 31.9344C305.256 31.9344 305.742 32.2043 305.951 32.6092ZM240.823 38.8179C240.615 39.2903 240.476 38.9529 240.476 38.0081C240.476 37.0633 240.615 36.7259 240.823 37.1308C240.962 37.6032 240.962 38.413 240.823 38.8179ZM311.505 38.0081C312.2 38.7505 312.477 39.3578 312.13 39.3578C311.783 39.3578 311.089 38.7505 310.603 38.0081C310.117 37.2657 309.839 36.6584 309.978 36.6584C310.117 36.6584 310.811 37.2657 311.505 38.0081ZM-9.55154 38.4805C-8.64891 39.5603 -8.71835 39.6277 -9.75983 38.7505C-10.9402 37.8731 -11.2874 37.3333 -10.7319 37.3333C-10.593 37.3333 -10.0376 37.8731 -9.55154 38.4805ZM-46.9063 40.3701C-47.1146 40.9775 -47.4618 41.3149 -47.6007 41.1125C-47.809 40.91 -47.7395 40.5051 -47.4618 40.1002C-46.8369 39.0204 -46.4203 39.2228 -46.9063 40.3701ZM-80.6506 41.5174C-80.8589 42.0573 -81.0672 41.8548 -81.0672 41.1125C-81.1367 40.3701 -80.9284 39.9652 -80.7201 40.2351C-80.5118 40.4376 -80.4423 41.045 -80.6506 41.5174ZM241.517 42.1922C241.309 42.7321 241.101 42.5297 241.101 41.7873C241.031 41.045 241.239 40.64 241.448 40.91C241.656 41.1125 241.725 41.7198 241.517 42.1922ZM284.149 42.5297C283.316 43.8794 283.177 43.4745 283.802 41.7198C284.079 41.1125 284.427 40.775 284.565 40.9775C284.774 41.1125 284.565 41.8548 284.149 42.5297ZM-6.84366 42.7321C-6.42706 43.4745 -6.2882 44.0818 -6.42706 44.0818C-6.63536 44.0818 -7.12139 43.4745 -7.53799 42.7321C-7.95458 41.9898 -8.09345 41.3824 -7.95458 41.3824C-7.74628 41.3824 -7.26026 41.9898 -6.84366 42.7321ZM315.671 44.0818C316.296 45.1616 316.574 46.1064 316.435 46.1064C316.227 46.1064 315.602 45.1616 314.977 44.0818C314.352 42.9346 314.074 42.0573 314.213 42.0573C314.422 42.0573 315.046 42.9346 315.671 44.0818ZM-49.7531 47.2537C-50.5168 48.6709 -51.8361 50.4255 -52.7387 51.1678C-54.1968 52.3826 -54.1968 52.3826 -52.5998 50.4255C-51.6278 49.2783 -50.4474 47.3211 -49.8919 46.1739C-49.4059 45.0266 -48.8505 44.1493 -48.7116 44.3518C-48.5727 44.4867 -48.9893 45.769 -49.7531 47.2537ZM282.76 45.9039C281.927 47.2537 281.788 46.8488 282.413 45.0941C282.691 44.4867 283.038 44.1493 283.177 44.3518C283.385 44.4867 283.177 45.2291 282.76 45.9039ZM243.739 47.4561C244.503 49.0758 244.503 49.0758 243.531 47.861C242.906 47.1187 242.42 46.2414 242.42 45.8365C242.42 45.0266 242.767 45.364 243.739 47.4561ZM-78.0816 47.1862C-77.8733 47.726 -77.9428 47.996 -78.3594 47.7935C-78.776 47.5911 -79.0537 47.1187 -79.0537 46.7138C-79.0537 45.769 -78.5677 45.9714 -78.0816 47.1862ZM319.421 51.8427C319.421 52.1801 318.865 51.4378 318.101 50.1555C317.338 48.8733 316.782 47.4561 316.782 47.1187C316.782 46.7138 317.338 47.5236 318.101 48.8058C318.865 50.0881 319.421 51.4378 319.421 51.8427ZM-3.37202 49.8181C-3.37202 50.1555 -3.71919 50.0206 -4.06635 49.4807C-4.41352 48.9408 -4.76068 48.131 -4.76068 47.7935C-4.76068 47.3886 -4.41352 47.5911 -4.06635 48.131C-3.71919 48.6709 -3.37202 49.4132 -3.37202 49.8181ZM245.544 50.1555C245.753 50.493 245.683 50.8304 245.267 50.8304C244.919 50.8304 244.364 50.493 244.156 50.1555C243.947 49.7506 244.017 49.4807 244.433 49.4807C244.78 49.4807 245.336 49.7506 245.544 50.1555ZM279.289 52.0452C278.525 53.1249 277.344 54.4072 276.65 54.9471C276.025 55.4869 276.511 54.6096 277.83 52.99C280.469 49.7506 281.441 49.1433 279.289 52.0452ZM-74.5406 52.1801C-73.8462 52.9225 -73.4296 53.5298 -73.6379 53.5298C-73.8462 53.5298 -74.5406 52.9225 -75.2349 52.1801C-75.9292 51.4378 -76.3458 50.8304 -76.1375 50.8304C-75.9292 50.8304 -75.2349 51.4378 -74.5406 52.1801ZM-55.7243 53.8673C-56.4881 54.4072 -57.4601 54.8796 -57.8073 54.8796C-58.2239 54.8121 -57.8073 54.4072 -56.8352 53.8673C-54.6134 52.5851 -54.0579 52.6525 -55.7243 53.8673ZM-71.0689 54.7446C-71.2772 54.9471 -71.8327 54.7446 -72.3187 54.2722C-72.9436 53.5974 -72.8742 53.5298 -71.9021 53.9348C-71.2078 54.1372 -70.8606 54.5421 -71.0689 54.7446ZM-59.1265 55.2845C-59.3348 55.4869 -59.9597 55.5544 -60.4457 55.352C-61.0012 55.1495 -60.7929 54.9471 -60.0291 54.9471C-59.2654 54.8796 -58.8488 55.082 -59.1265 55.2845ZM321.504 57.9164C321.504 58.2538 321.226 58.1189 320.879 57.579C320.532 57.0391 320.254 56.0943 320.254 55.5544C320.254 54.4746 321.434 56.6342 321.504 57.9164ZM-63.223 56.0268C-63.9174 56.1618 -65.1671 56.1618 -66.0003 56.0268C-66.903 55.8918 -66.3475 55.7569 -64.82 55.7569C-63.2925 55.6894 -62.5981 55.8244 -63.223 56.0268ZM251.099 56.2293C251.307 56.6342 251.029 56.7017 250.474 56.4992C249.224 56.0268 249.016 55.5544 249.988 55.5544C250.405 55.5544 250.891 55.8244 251.099 56.2293ZM253.876 58.1189C253.668 58.3214 253.112 58.1189 252.626 57.6465C252.001 56.9716 252.071 56.9041 253.043 57.3091C253.737 57.5115 254.084 57.9164 253.876 58.1189ZM272.623 57.579C272.415 57.9164 271.79 58.2538 271.373 58.2538C270.887 58.2538 270.957 57.9839 271.582 57.579C272.901 56.7692 273.178 56.7692 272.623 57.579ZM-0.108688 59.7386C-0.316986 60.2784 -0.525284 60.076 -0.525284 59.3336C-0.594719 58.5913 -0.386421 58.1864 -0.178123 58.4563C0.0301743 58.6588 0.0996094 59.2661 -0.108688 59.7386ZM269.151 58.9287C268.388 59.2661 266.86 59.4686 265.68 59.4686C263.666 59.4011 263.666 59.4011 266.027 58.9287C269.429 58.2538 270.818 58.2538 269.151 58.9287ZM259.292 59.4011C258.806 59.5361 257.973 59.5361 257.556 59.4011C257.07 59.1987 257.417 59.0637 258.389 59.0637C259.361 59.0637 259.709 59.1987 259.292 59.4011ZM322.059 60.4134C321.851 60.9533 321.643 60.7508 321.643 60.0085C321.573 59.2661 321.781 58.8612 321.99 59.1312C322.198 59.3336 322.267 59.941 322.059 60.4134ZM0.58564 62.438C0.377342 62.9779 0.169044 62.7754 0.169044 62.0331C0.0996094 61.2907 0.307907 60.8858 0.516205 61.1558C0.724503 61.3582 0.793938 61.9656 0.58564 62.438ZM322.823 63.7202C322.615 64.2601 322.337 63.9227 322.059 63.0453C321.781 61.8981 321.851 61.6281 322.406 62.168C322.753 62.5055 322.962 63.2478 322.823 63.7202ZM1.27997 66.4871C1.07167 66.9595 0.9328 66.6221 0.9328 65.6773C0.9328 64.7325 1.07167 64.3951 1.27997 64.8C1.41883 65.2724 1.41883 66.0822 1.27997 66.4871ZM323.448 67.162C323.239 67.7019 323.031 67.4994 323.031 66.7571C322.962 66.0147 323.17 65.6098 323.378 65.8798C323.587 66.0822 323.656 66.6896 323.448 67.162ZM1.97429 70.1989C1.76599 70.8737 1.62713 70.4688 1.62713 69.389C1.62713 68.2418 1.76599 67.7693 1.97429 68.1743C2.11316 68.6467 2.11316 69.5915 1.97429 70.1989ZM324.142 72.2234C323.934 72.8983 323.795 72.4934 323.795 71.4136C323.795 70.2663 323.934 69.7939 324.142 70.1989C324.281 70.6712 324.281 71.616 324.142 72.2234ZM2.66862 86.3954C2.52975 88.9599 2.46032 86.8678 2.46032 81.8739C2.46032 76.8799 2.52975 74.7879 2.66862 77.2849C2.80749 79.8493 2.80749 83.8985 2.66862 86.3954ZM324.836 80.3217C324.628 80.9966 324.489 80.4567 324.489 79.1745C324.489 77.8922 324.628 77.3523 324.836 77.9597C324.975 78.6346 324.975 79.7143 324.836 80.3217ZM324.142 89.7697C323.934 90.4446 323.795 90.0397 323.795 88.9599C323.795 87.8126 323.934 87.3402 324.142 87.7451C324.281 88.2176 324.281 89.1624 324.142 89.7697ZM1.97429 94.4937C1.76599 95.1686 1.62713 94.7637 1.62713 93.6839C1.62713 92.5367 1.76599 92.0642 1.97429 92.4692C2.11316 92.9416 2.11316 93.8864 1.97429 94.4937ZM323.448 94.4937C323.239 95.1686 323.101 94.7637 323.101 93.6839C323.101 92.5367 323.239 92.0642 323.448 92.4692C323.587 92.9416 323.587 93.8864 323.448 94.4937ZM1.27997 98.8803C1.07167 99.3527 0.9328 99.0153 0.9328 98.0705C0.9328 97.1257 1.07167 96.7883 1.27997 97.1932C1.41883 97.6656 1.41883 98.4754 1.27997 98.8803ZM322.753 99.5552C322.545 100.028 322.406 99.6901 322.406 98.7453C322.406 97.8005 322.545 97.4631 322.753 97.868C322.892 98.3404 322.892 99.1503 322.753 99.5552ZM0.58564 102.929C0.377342 103.402 0.238472 103.064 0.238472 102.12C0.238472 101.175 0.377342 100.837 0.58564 101.242C0.724503 101.715 0.724503 102.525 0.58564 102.929ZM322.059 102.929C321.851 103.402 321.712 103.064 321.712 102.12C321.712 101.175 321.851 100.837 322.059 101.242C322.198 101.715 322.198 102.525 322.059 102.929ZM-0.108688 106.304C-0.316986 106.776 -0.455849 106.439 -0.455849 105.494C-0.455849 104.549 -0.316986 104.212 -0.108688 104.617C0.0301743 105.089 0.0301743 105.899 -0.108688 106.304ZM321.365 105.629C321.156 106.169 320.948 105.966 320.948 105.224C320.879 104.482 321.087 104.077 321.295 104.347C321.504 104.549 321.573 105.156 321.365 105.629ZM263.805 106.641C262.764 106.776 260.889 106.776 259.639 106.641C258.389 106.506 259.223 106.371 261.514 106.371C263.805 106.371 264.847 106.506 263.805 106.641ZM254.293 107.856C253.043 108.396 251.793 108.868 251.515 108.868C250.613 108.801 254.64 106.911 255.612 106.911C256.167 106.911 255.612 107.316 254.293 107.856ZM320.532 108.666C320.323 109.746 319.837 110.825 319.49 111.163C319.143 111.5 319.212 110.69 319.629 109.341C320.532 106.439 321.226 105.966 320.532 108.666ZM-0.803017 109.003C-1.01131 109.543 -1.21961 109.341 -1.21961 108.598C-1.28905 107.856 -1.08075 107.451 -0.872452 107.721C-0.664154 107.923 -0.594719 108.531 -0.803017 109.003ZM274.359 109.948C274.359 110.083 273.734 109.948 272.97 109.543C272.206 109.138 271.582 108.666 271.582 108.463C271.582 108.328 272.206 108.463 272.97 108.868C273.734 109.273 274.359 109.746 274.359 109.948ZM250.752 109.071C250.752 109.206 249.432 110.488 247.836 111.905L244.85 114.605L247.627 111.703C250.127 109.071 250.752 108.531 250.752 109.071ZM276.789 111.568C277.483 112.31 277.9 112.917 277.692 112.917C277.483 112.917 276.789 112.31 276.095 111.568C275.4 110.825 274.984 110.218 275.192 110.218C275.4 110.218 276.095 110.825 276.789 111.568ZM-63.5702 112.715C-64.4728 112.85 -66.0003 112.85 -67.0418 112.715C-68.1528 112.58 -67.389 112.445 -65.5143 112.445C-63.5702 112.445 -62.737 112.58 -63.5702 112.715ZM319.004 113.255C318.796 113.862 318.449 114.2 318.31 113.997C318.101 113.795 318.171 113.39 318.449 112.985C319.073 111.905 319.49 112.108 319.004 113.255ZM-70.0274 113.39C-70.5829 113.592 -71.6938 114.065 -72.4576 114.402C-73.8462 115.009 -73.8462 115.009 -72.527 113.997C-71.7632 113.39 -70.6523 112.917 -70.0969 112.985C-69.1248 112.985 -69.1248 113.052 -70.0274 113.39ZM-56.8352 114.267C-55.3771 115.009 -53.5024 116.562 -52.6693 117.776L-51.1417 120.003L-53.2247 117.844C-54.3356 116.629 -56.6269 115.009 -58.2933 114.267C-59.9597 113.525 -60.9317 112.917 -60.4457 112.917C-59.9597 112.917 -58.3627 113.525 -56.8352 114.267ZM279.289 114.739C280.191 115.819 280.122 115.887 279.08 115.009C278.386 114.537 277.83 113.997 277.83 113.862C277.83 113.322 278.386 113.66 279.289 114.739ZM-76.6235 118.046C-77.9428 119.733 -79.0537 121.421 -79.0537 121.825C-79.0537 122.23 -79.262 122.365 -79.4703 122.163C-79.9563 121.691 -78.2205 118.789 -76.0681 116.427C-73.7768 113.997 -74.0545 114.739 -76.6235 118.046ZM317.129 117.439C316.574 118.451 316.088 119.126 316.018 118.856C316.018 118.046 317.615 114.942 317.893 115.212C318.101 115.347 317.754 116.359 317.129 117.439ZM-3.99692 118.114C-4.83012 119.463 -4.96898 119.059 -4.34409 117.304C-4.06635 116.697 -3.71919 116.359 -3.58032 116.562C-3.37202 116.697 -3.58032 117.439 -3.99692 118.114ZM243.322 117.979C243.114 118.586 242.767 118.924 242.628 118.721C242.42 118.519 242.489 118.114 242.767 117.709C243.392 116.629 243.808 116.832 243.322 117.979ZM282.691 121.353C282.691 121.691 282.344 121.556 281.996 121.016C281.649 120.476 281.302 119.666 281.302 119.329C281.302 118.924 281.649 119.126 281.996 119.666C282.344 120.206 282.691 120.948 282.691 121.353ZM-6.14934 122.973C-8.09345 126.752 -8.57948 126.482 -6.7048 122.703C-5.8716 121.083 -5.10784 119.801 -4.89954 119.936C-4.76068 120.071 -5.31614 121.421 -6.14934 122.973ZM241.795 121.758C241.448 122.635 241.101 123.04 241.101 122.568C241.031 121.556 241.795 119.531 242.142 119.868C242.35 120.003 242.142 120.881 241.795 121.758ZM315.324 121.016C314.908 121.758 314.422 122.365 314.213 122.365C314.074 122.365 314.213 121.758 314.63 121.016C315.046 120.273 315.532 119.666 315.741 119.666C315.88 119.666 315.741 120.273 315.324 121.016ZM284.079 124.727C284.079 125.065 283.732 124.93 283.385 124.39C283.038 123.85 282.691 123.04 282.691 122.703C282.691 122.298 283.038 122.5 283.385 123.04C283.732 123.58 284.079 124.322 284.079 124.727ZM-80.3729 125.132C-80.7201 126.01 -81.0672 126.415 -81.0672 125.942C-81.1367 124.93 -80.3729 122.905 -80.0257 123.243C-79.8174 123.378 -80.0257 124.255 -80.3729 125.132ZM-48.5033 125.402C-48.5033 125.74 -48.8505 125.605 -49.1976 125.065C-49.5448 124.525 -49.8919 123.715 -49.8919 123.378C-49.8919 122.973 -49.5448 123.175 -49.1976 123.715C-48.8505 124.255 -48.5033 124.997 -48.5033 125.402ZM240.823 201.796C240.753 216.238 240.684 204.428 240.684 175.679C240.684 146.93 240.753 135.12 240.823 149.495C240.962 163.937 240.962 187.422 240.823 201.796ZM-9.20438 128.304C-9.75983 129.316 -10.9402 130.734 -11.7734 131.476L-13.4398 132.826L-11.9817 131.139C-11.1485 130.194 -10.107 128.777 -9.69041 127.899C-9.2738 127.089 -8.71835 126.415 -8.51005 126.415C-8.37119 126.415 -8.64891 127.224 -9.20438 128.304ZM311.852 126.617C311.852 126.752 311.158 127.427 310.325 128.169L308.728 129.451L310.047 127.899C311.297 126.482 311.852 126.077 311.852 126.617ZM-81.345 128.574C-81.5533 129.114 -81.7616 128.911 -81.7616 128.169C-81.831 127.427 -81.6227 127.022 -81.4144 127.292C-81.2061 127.494 -81.1367 128.102 -81.345 128.574ZM286.44 130.261C287.065 131.476 287.412 132.488 287.273 132.488C286.857 132.488 284.774 128.777 284.774 128.034C284.774 127.292 285.121 127.832 286.44 130.261ZM-45.8648 131.948C-44.2679 135.458 -44.4068 136.335 -45.9343 133.298C-47.0452 131.341 -48.2256 127.899 -47.6701 128.439C-47.4618 128.642 -46.6286 130.194 -45.8648 131.948ZM-82.0393 207.87C-82.1087 222.244 -82.1782 210.704 -82.1782 182.09C-82.1782 153.476 -82.1087 141.734 -82.0393 155.906C-81.9004 170.078 -81.9004 193.428 -82.0393 207.87ZM306.992 131.408C306.992 131.543 306.437 132.083 305.812 132.556C304.701 133.433 304.632 133.366 305.534 132.286C306.437 131.206 306.992 130.869 306.992 131.408ZM-13.0926 133.366C-13.0926 133.501 -14.4118 134.783 -16.0088 136.2L-18.9944 138.899L-16.2171 135.997C-13.7175 133.366 -13.0926 132.826 -13.0926 133.366ZM291.648 135.66C291.786 135.795 291.648 135.863 291.231 135.863C290.814 135.863 289.773 135.255 288.87 134.445L287.204 133.096L289.287 134.243C290.467 134.918 291.509 135.525 291.648 135.66ZM302.132 134.513C301.576 134.85 300.604 135.12 300.049 135.12C299.355 135.12 299.493 134.918 300.396 134.513C302.271 133.703 303.382 133.703 302.132 134.513ZM298.452 135.593C298.244 135.795 297.619 135.863 297.133 135.66C296.577 135.458 296.786 135.255 297.549 135.255C298.313 135.188 298.73 135.39 298.452 135.593ZM-43.643 136.537C-43.643 136.875 -43.7819 137.212 -43.9207 137.212C-44.129 137.212 -44.4762 136.875 -44.6845 136.537C-44.8928 136.132 -44.7539 135.863 -44.4068 135.863C-43.9902 135.863 -43.643 136.132 -43.643 136.537ZM294.286 136.267C294.078 136.47 293.453 136.537 292.967 136.335C292.411 136.132 292.62 135.93 293.383 135.93C294.147 135.863 294.564 136.065 294.286 136.267ZM-41.4906 139.034C-40.588 140.114 -40.6574 140.182 -41.6989 139.304C-42.3932 138.832 -42.9487 138.292 -42.9487 138.157C-42.9487 137.617 -42.3932 137.955 -41.4906 139.034ZM-20.0359 139.237C-20.5913 139.574 -21.3551 139.912 -21.7717 139.912C-22.1189 139.912 -21.98 139.574 -21.4245 139.237C-20.8691 138.899 -20.0359 138.562 -19.6887 138.562C-19.2721 138.562 -19.4804 138.899 -20.0359 139.237ZM-23.5075 140.587C-24.063 140.924 -25.035 141.194 -25.5905 141.194C-26.2848 141.194 -26.146 140.991 -25.2433 140.587C-23.3686 139.777 -22.2577 139.777 -23.5075 140.587ZM-30.5202 142.341C-29.8953 142.881 -35.7277 142.476 -37.0469 141.936C-37.8801 141.599 -36.9775 141.531 -34.6167 141.734C-32.5338 141.936 -30.6591 142.206 -30.5202 142.341ZM-27.1874 141.666C-27.3957 141.869 -28.0206 141.936 -28.5067 141.734C-29.0621 141.531 -28.8538 141.329 -28.0901 141.329C-27.3263 141.261 -26.9097 141.464 -27.1874 141.666ZM220.41 239.588C208.884 239.723 189.859 239.723 178.056 239.588C166.322 239.521 175.764 239.453 199.024 239.453C222.354 239.453 231.935 239.521 220.41 239.588ZM-2.12224 240.263C-16.9808 240.398 -41.1434 240.398 -55.9326 240.263C-70.7912 240.196 -58.6405 240.128 -29.0621 240.128C0.516205 240.128 12.6669 240.196 -2.12224 240.263ZM28.081 240.263C27.595 240.398 26.6229 240.398 25.998 240.263C25.3037 240.061 25.7203 239.926 26.8312 239.926C28.0116 239.926 28.4976 240.061 28.081 240.263ZM37.385 240.196C37.1767 240.398 36.5518 240.466 36.0658 240.263C35.5103 240.061 35.7186 239.858 36.4824 239.858C37.2461 239.791 37.6627 239.993 37.385 240.196ZM126.675 240.263C126.189 240.398 125.356 240.398 124.94 240.263C124.454 240.061 124.801 239.926 125.773 239.926C126.745 239.926 127.092 240.061 126.675 240.263ZM122.787 240.87C122.579 241.073 121.954 241.14 121.468 240.938C120.913 240.735 121.121 240.533 121.885 240.533C122.648 240.466 123.065 240.668 122.787 240.87ZM119.524 241.815C118.968 242.153 118.205 242.49 117.788 242.49C117.441 242.49 117.58 242.153 118.135 241.815C118.691 241.478 119.524 241.14 119.871 241.14C120.288 241.14 120.079 241.478 119.524 241.815ZM116.677 242.693C116.538 242.828 115.497 243.435 114.316 244.11L112.233 245.257L113.9 243.907C114.802 243.097 115.844 242.49 116.261 242.49C116.677 242.49 116.816 242.558 116.677 242.693ZM53.3545 250.791C53.91 251.871 54.1877 252.883 54.0488 253.085C53.8405 253.22 53.4934 252.748 53.2156 251.871C52.9379 251.061 51.4104 248.969 49.8829 247.282L47.0361 244.177L49.6746 246.539C51.1327 247.821 52.7296 249.779 53.3545 250.791ZM108.415 248.834C108.415 248.969 107.859 249.509 107.234 249.981C106.123 250.858 106.054 250.791 106.957 249.711C107.859 248.631 108.415 248.294 108.415 248.834ZM105.846 252.276C105.637 252.883 105.29 253.22 105.151 253.018C104.943 252.815 105.012 252.41 105.29 252.006C105.915 250.926 106.332 251.128 105.846 252.276ZM55.4375 262.533C55.2986 263.951 55.1597 262.938 55.1597 260.374C55.1597 257.742 55.2986 256.662 55.4375 257.809C55.5763 259.024 55.5763 261.184 55.4375 262.533ZM104.04 258.484C103.832 259.159 103.693 258.754 103.693 257.674C103.693 256.527 103.832 256.055 104.04 256.46C104.179 256.932 104.179 257.877 104.04 258.484ZM104.04 265.233C103.832 265.908 103.693 265.503 103.693 264.423C103.693 263.276 103.832 262.803 104.04 263.208C104.179 263.681 104.179 264.625 104.04 265.233ZM104.735 268.27C104.526 268.81 104.318 268.607 104.318 267.865C104.249 267.122 104.457 266.717 104.665 266.987C104.874 267.19 104.943 267.797 104.735 268.27ZM106.262 271.509C107.026 273.129 107.026 273.129 106.054 271.914C105.429 271.172 104.943 270.294 104.943 269.889C104.943 269.079 105.29 269.417 106.262 271.509ZM51.4798 273.736C51.4798 273.871 50.7855 274.546 49.9523 275.288L48.3553 276.57L49.6746 275.018C50.9244 273.601 51.4798 273.196 51.4798 273.736ZM113.275 278.46C114.178 279.135 114.733 279.607 114.455 279.607C113.414 279.607 109.248 276.57 108.415 275.221C107.72 274.208 107.998 274.276 109.526 275.626C110.636 276.57 112.303 277.853 113.275 278.46ZM48.0082 276.503C48.0082 276.638 47.4527 277.178 46.8278 277.65C45.7169 278.528 45.6475 278.46 46.5501 277.38C47.4527 276.3 48.0082 275.963 48.0082 276.503ZM41.7592 280.282C41.2038 280.62 40.44 280.957 40.0234 280.957C39.6763 280.957 39.8151 280.62 40.3706 280.282C40.926 279.945 41.7592 279.607 42.1064 279.607C42.523 279.607 42.3147 279.945 41.7592 280.282ZM117.094 280.822C116.885 281.024 116.33 280.822 115.844 280.35C115.219 279.675 115.288 279.607 116.261 280.012C116.955 280.215 117.302 280.62 117.094 280.822ZM38.2876 281.632C37.7321 281.969 36.9684 282.307 36.5518 282.307C36.2046 282.307 36.3435 281.969 36.8989 281.632C37.4544 281.294 38.2876 280.957 38.6348 280.957C39.0514 280.957 38.8431 281.294 38.2876 281.632ZM122.301 282.307C122.857 282.644 123.065 282.982 122.648 282.982C122.301 282.982 121.468 282.644 120.913 282.307C120.357 281.969 120.218 281.632 120.565 281.632C120.982 281.632 121.746 281.969 122.301 282.307ZM33.3579 283.252C32.6636 283.859 28.567 285.681 28.567 285.411C28.567 284.939 32.1775 283.049 33.0107 282.982C33.3579 282.982 33.4967 283.117 33.3579 283.252ZM127.856 284.331C128.411 284.669 128.62 285.006 128.203 285.006C127.856 285.006 127.023 284.669 126.467 284.331C125.912 283.994 125.773 283.656 126.12 283.656C126.537 283.656 127.3 283.994 127.856 284.331ZM132.786 287.436C133.41 288.178 132.924 288.043 131.536 287.031C130.286 286.153 129.244 285.344 129.244 285.209C129.244 284.669 131.883 286.356 132.786 287.436ZM27.8727 285.951C27.8727 286.086 27.3172 286.626 26.6923 287.098C25.5814 287.976 25.512 287.908 26.4146 286.828C27.3172 285.748 27.8727 285.411 27.8727 285.951ZM24.8871 292.902C24.6788 293.577 24.5399 293.172 24.5399 292.092C24.5399 290.945 24.6788 290.472 24.8871 290.877C25.026 291.35 25.026 292.295 24.8871 292.902ZM134.591 293.577C134.382 294.252 134.244 293.847 134.244 292.767C134.244 291.62 134.382 291.147 134.591 291.552C134.73 292.025 134.73 292.969 134.591 293.577ZM133.896 296.614C133.688 297.154 133.48 296.951 133.48 296.209C133.41 295.466 133.619 295.062 133.827 295.331C134.035 295.534 134.105 296.141 133.896 296.614ZM27.1784 300.19C27.1784 300.528 26.8312 300.393 26.484 299.853C26.1369 299.313 25.7897 298.503 25.7897 298.166C25.7897 297.761 26.1369 297.963 26.484 298.503C26.8312 299.043 27.1784 299.786 27.1784 300.19ZM132.716 300.325C131.952 301.473 131.952 301.473 132.299 300.325C132.508 299.651 132.716 298.706 132.786 298.301C132.786 297.693 132.924 297.693 133.133 298.301C133.341 298.773 133.133 299.651 132.716 300.325ZM30.2334 305.252C30.9972 306.197 30.65 305.994 29.4697 304.779C28.2199 303.565 27.1784 302.215 27.1784 301.743C27.1784 301.27 27.595 301.473 28.0116 302.215C28.4282 302.957 29.4002 304.307 30.2334 305.252ZM131.119 304.172C129.314 306.804 117.441 315.105 117.441 313.755C117.441 313.553 118.482 312.878 119.732 312.27C123.412 310.381 130.008 305.184 130.772 303.497C131.189 302.62 131.675 302.013 131.883 302.215C132.091 302.35 131.675 303.227 131.119 304.172ZM36.8989 310.448C36.8989 310.988 34.2605 309.301 33.3579 308.221C32.733 307.479 33.219 307.614 34.6771 308.626C35.8575 309.503 36.8989 310.313 36.8989 310.448ZM113.969 315.712C112.997 316.252 111.956 316.657 111.539 316.657C111.192 316.657 111.609 316.252 112.581 315.712C113.553 315.172 114.664 314.767 115.011 314.767C115.427 314.767 114.941 315.172 113.969 315.712ZM49.3968 316.05C49.9523 316.387 50.1606 316.724 49.744 316.724C49.3968 316.724 48.5636 316.387 48.0082 316.05C47.4527 315.712 47.3139 315.375 47.661 315.375C48.0776 315.375 48.8414 315.712 49.3968 316.05ZM53.91 317.399C54.8126 317.737 54.882 318.007 54.2571 318.007C53.7017 318.007 52.5907 317.737 51.827 317.399C50.9244 317.062 50.8549 316.792 51.4798 316.792C52.0353 316.792 53.1462 317.062 53.91 317.399ZM57.5205 318.479C57.3122 318.682 56.6873 318.749 56.2012 318.547C55.6458 318.344 55.8541 318.142 56.6178 318.142C57.3816 318.074 57.7982 318.277 57.5205 318.479ZM60.7144 319.221C60.2283 319.356 59.3951 319.356 58.9785 319.221C58.4925 319.019 58.8397 318.884 59.8117 318.884C60.7838 318.884 61.131 319.019 60.7144 319.221ZM103.346 319.154C103.138 319.356 102.513 319.424 102.027 319.221C101.471 319.019 101.68 318.817 102.443 318.817C103.207 318.749 103.624 318.952 103.346 319.154ZM64.8803 319.896C64.3943 320.031 63.4222 320.031 62.7973 319.896C62.103 319.694 62.5196 319.559 63.6305 319.559C64.8109 319.559 65.2969 319.694 64.8803 319.896ZM100.569 319.829C100.36 320.031 99.7355 320.099 99.2495 319.896C98.6941 319.694 98.9024 319.491 99.6661 319.491C100.43 319.424 100.846 319.626 100.569 319.829ZM69.7406 320.571C69.2546 320.706 68.2825 320.706 67.6576 320.571C66.9633 320.369 67.3799 320.234 68.4908 320.234C69.6712 320.234 70.1572 320.369 69.7406 320.571ZM97.5137 320.571C97.0277 320.706 96.0556 320.706 95.4307 320.571C94.7364 320.369 95.153 320.234 96.2639 320.234C97.4443 320.234 97.9303 320.369 97.5137 320.571ZM74.6009 321.246C74.1149 321.381 73.1428 321.381 72.5179 321.246C71.8236 321.044 72.2402 320.909 73.3511 320.909C74.5315 320.909 75.0175 321.044 74.6009 321.246ZM92.3063 321.246C91.6119 321.381 90.501 321.381 89.8761 321.246C89.1818 321.044 89.7372 320.909 91.0565 320.909C92.3757 320.909 92.9312 321.044 92.3063 321.246ZM84.6687 321.921C83.9743 322.056 82.8634 322.056 82.2385 321.921C81.5442 321.718 82.0996 321.583 83.4189 321.583C84.7381 321.583 85.2935 321.718 84.6687 321.921Z" stroke="black" stroke-width="2" mask="url(#path-1-inside-1_190_74)"/>
<path d="M22.375 143V141.79H24.905V105.71H22.375V104.5H30.8725C32.5958 104.5 34.1817 105.197 35.63 106.59C37.0783 107.965 38.2333 110.055 39.095 112.86C39.975 115.665 40.415 119.194 40.415 123.447C40.415 127.737 39.975 131.34 39.095 134.255C38.2333 137.152 37.0692 139.333 35.6025 140.8C34.1542 142.267 32.5775 143 30.8725 143H22.375ZM29.03 141.79H30.295C31.3217 141.79 32.275 141.148 33.155 139.865C34.0533 138.563 34.7775 136.565 35.3275 133.87C35.8775 131.157 36.1525 127.682 36.1525 123.447C36.1525 119.707 35.905 116.517 35.41 113.877C34.915 111.237 34.2733 109.221 33.485 107.827C32.6967 106.416 31.8625 105.71 30.9825 105.71H29.03V141.79ZM42.881 143V141.79H45.5485V115.417H42.881V114.207H49.6735V141.79H52.4235V143H42.881ZM47.5835 108.927C46.7585 108.927 46.0526 108.643 45.466 108.075C44.8976 107.488 44.6135 106.792 44.6135 105.985C44.6135 105.16 44.8976 104.463 45.466 103.895C46.0526 103.327 46.7585 103.042 47.5835 103.042C48.3718 103.042 49.0501 103.327 49.6185 103.895C50.1868 104.463 50.471 105.16 50.471 105.985C50.471 106.792 50.1868 107.488 49.6185 108.075C49.0501 108.643 48.3718 108.927 47.5835 108.927ZM60.3779 143.578C59.3145 143.578 58.352 143.33 57.4904 142.835C56.6287 142.322 55.9504 141.552 55.4554 140.525C54.9604 139.498 54.7129 138.197 54.7129 136.62C54.7129 134.878 55.0337 133.439 55.6754 132.302C56.3354 131.166 57.1512 130.212 58.1229 129.442C59.0945 128.654 60.057 127.957 61.0104 127.352C61.982 126.729 62.7979 126.078 63.4579 125.4C64.1179 124.722 64.4479 123.897 64.4479 122.925C64.4479 121.532 64.347 120.257 64.1454 119.102C63.962 117.947 63.6412 117.031 63.1829 116.352C62.7245 115.674 62.0737 115.335 61.2304 115.335C60.3504 115.335 59.5895 115.656 58.9479 116.297C58.3062 116.921 57.9854 117.654 57.9854 118.497C57.9854 118.919 58.0495 119.286 58.1779 119.597C58.3245 119.891 58.4529 120.193 58.5629 120.505C58.6912 120.817 58.7554 121.211 58.7554 121.687C58.7554 122.347 58.5995 122.888 58.2879 123.31C57.9945 123.732 57.5545 123.942 56.9679 123.942C56.3995 123.942 55.9595 123.695 55.6479 123.2C55.3545 122.705 55.2079 122.017 55.2079 121.137C55.2079 119.836 55.492 118.644 56.0604 117.562C56.6287 116.481 57.417 115.619 58.4254 114.977C59.4337 114.317 60.5979 113.987 61.9179 113.987C63.2195 113.987 64.3654 114.308 65.3554 114.95C66.3637 115.592 67.152 116.6 67.7204 117.975C68.2887 119.332 68.5729 121.101 68.5729 123.282V139.892C68.5729 140.644 68.6645 141.167 68.8479 141.46C69.0495 141.735 69.3062 141.872 69.6179 141.872C69.8929 141.872 70.1404 141.817 70.3604 141.707C70.5804 141.579 70.7454 141.46 70.8554 141.35L71.4879 142.367C71.2862 142.606 70.9012 142.826 70.3329 143.028C69.7829 143.248 69.1229 143.358 68.3529 143.358C67.6562 143.358 67.042 143.248 66.5104 143.028C65.997 142.807 65.5845 142.477 65.2729 142.037C64.9612 141.597 64.787 141.066 64.7504 140.442C64.6587 140.809 64.4479 141.24 64.1179 141.735C63.7879 142.23 63.3204 142.661 62.7154 143.028C62.1104 143.394 61.3312 143.578 60.3779 143.578ZM61.5879 141.762C62.1562 141.762 62.6512 141.552 63.0729 141.13C63.5129 140.69 63.852 140.167 64.0904 139.562C64.3287 138.957 64.4479 138.389 64.4479 137.857V125.675C64.3929 126.188 64.0812 126.729 63.5129 127.297C62.9629 127.866 62.3395 128.526 61.6429 129.277C60.9462 130.011 60.3229 130.927 59.7729 132.027C59.2412 133.127 58.9754 134.466 58.9754 136.042C58.9754 137.876 59.177 139.287 59.5804 140.277C59.9837 141.267 60.6529 141.762 61.5879 141.762ZM72.3971 143V141.79H75.0371V115.417H72.3971V114.207H79.1071V117.727C79.2537 117.196 79.5196 116.646 79.9046 116.077C80.2896 115.491 80.8029 114.996 81.4446 114.593C82.1046 114.189 82.8746 113.987 83.7546 113.987C84.6162 113.987 85.4504 114.198 86.2571 114.62C87.0637 115.042 87.7237 115.857 88.2371 117.067C88.7504 118.259 89.0071 120.037 89.0071 122.402V141.79H91.5646V143H82.6821V141.79H84.8821V122.897C84.8821 120.404 84.6804 118.598 84.2771 117.48C83.8737 116.362 83.2321 115.802 82.3521 115.802C81.9304 115.802 81.5271 115.986 81.1421 116.352C80.7571 116.701 80.4179 117.168 80.1246 117.755C79.8312 118.323 79.5929 118.937 79.4096 119.597C79.2446 120.257 79.1621 120.872 79.1621 121.44V141.79H81.3621V143H72.3971ZM99.5868 143.578C98.5235 143.578 97.561 143.33 96.6993 142.835C95.8377 142.322 95.1593 141.552 94.6643 140.525C94.1693 139.498 93.9218 138.197 93.9218 136.62C93.9218 134.878 94.2427 133.439 94.8843 132.302C95.5443 131.166 96.3602 130.212 97.3318 129.442C98.3035 128.654 99.266 127.957 100.219 127.352C101.191 126.729 102.007 126.078 102.667 125.4C103.327 124.722 103.657 123.897 103.657 122.925C103.657 121.532 103.556 120.257 103.354 119.102C103.171 117.947 102.85 117.031 102.392 116.352C101.934 115.674 101.283 115.335 100.439 115.335C99.5593 115.335 98.7985 115.656 98.1568 116.297C97.5152 116.921 97.1943 117.654 97.1943 118.497C97.1943 118.919 97.2585 119.286 97.3868 119.597C97.5335 119.891 97.6618 120.193 97.7718 120.505C97.9002 120.817 97.9643 121.211 97.9643 121.687C97.9643 122.347 97.8085 122.888 97.4968 123.31C97.2035 123.732 96.7635 123.942 96.1768 123.942C95.6085 123.942 95.1685 123.695 94.8568 123.2C94.5635 122.705 94.4168 122.017 94.4168 121.137C94.4168 119.836 94.701 118.644 95.2693 117.562C95.8377 116.481 96.626 115.619 97.6343 114.977C98.6427 114.317 99.8068 113.987 101.127 113.987C102.429 113.987 103.574 114.308 104.564 114.95C105.573 115.592 106.361 116.6 106.929 117.975C107.498 119.332 107.782 121.101 107.782 123.282V139.892C107.782 140.644 107.874 141.167 108.057 141.46C108.259 141.735 108.515 141.872 108.827 141.872C109.102 141.872 109.349 141.817 109.569 141.707C109.789 141.579 109.954 141.46 110.064 141.35L110.697 142.367C110.495 142.606 110.11 142.826 109.542 143.028C108.992 143.248 108.332 143.358 107.562 143.358C106.865 143.358 106.251 143.248 105.719 143.028C105.206 142.807 104.794 142.477 104.482 142.037C104.17 141.597 103.996 141.066 103.959 140.442C103.868 140.809 103.657 141.24 103.327 141.735C102.997 142.23 102.529 142.661 101.924 143.028C101.319 143.394 100.54 143.578 99.5868 143.578ZM100.797 141.762C101.365 141.762 101.86 141.552 102.282 141.13C102.722 140.69 103.061 140.167 103.299 139.562C103.538 138.957 103.657 138.389 103.657 137.857V125.675C103.602 126.188 103.29 126.729 102.722 127.297C102.172 127.866 101.549 128.526 100.852 129.277C100.155 130.011 99.5318 130.927 98.9818 132.027C98.4502 133.127 98.1843 134.466 98.1843 136.042C98.1843 137.876 98.386 139.287 98.7893 140.277C99.1927 141.267 99.8618 141.762 100.797 141.762ZM120.391 143V141.79H122.921V105.71H120.391V104.5H127.569L136.341 133.595H136.094V105.71H133.564V104.5H139.779V105.71H137.359V143H134.994L123.939 107.085H124.159V141.79H126.936V143H120.391ZM147.98 143.578C146.917 143.578 145.955 143.33 145.093 142.835C144.231 142.322 143.553 141.552 143.058 140.525C142.563 139.498 142.315 138.197 142.315 136.62C142.315 134.878 142.636 133.439 143.278 132.302C143.938 131.166 144.754 130.212 145.725 129.442C146.697 128.654 147.66 127.957 148.613 127.352C149.585 126.729 150.4 126.078 151.06 125.4C151.72 124.722 152.05 123.897 152.05 122.925C152.05 121.532 151.95 120.257 151.748 119.102C151.565 117.947 151.244 117.031 150.785 116.352C150.327 115.674 149.676 115.335 148.833 115.335C147.953 115.335 147.192 115.656 146.55 116.297C145.909 116.921 145.588 117.654 145.588 118.497C145.588 118.919 145.652 119.286 145.78 119.597C145.927 119.891 146.055 120.193 146.165 120.505C146.294 120.817 146.358 121.211 146.358 121.687C146.358 122.347 146.202 122.888 145.89 123.31C145.597 123.732 145.157 123.942 144.57 123.942C144.002 123.942 143.562 123.695 143.25 123.2C142.957 122.705 142.81 122.017 142.81 121.137C142.81 119.836 143.095 118.644 143.663 117.562C144.231 116.481 145.02 115.619 146.028 114.977C147.036 114.317 148.2 113.987 149.52 113.987C150.822 113.987 151.968 114.308 152.958 114.95C153.966 115.592 154.755 116.6 155.323 117.975C155.891 119.332 156.175 121.101 156.175 123.282V139.892C156.175 140.644 156.267 141.167 156.45 141.46C156.652 141.735 156.909 141.872 157.22 141.872C157.495 141.872 157.743 141.817 157.963 141.707C158.183 141.579 158.348 141.46 158.458 141.35L159.09 142.367C158.889 142.606 158.504 142.826 157.935 143.028C157.385 143.248 156.725 143.358 155.955 143.358C155.259 143.358 154.645 143.248 154.113 143.028C153.6 142.807 153.187 142.477 152.875 142.037C152.564 141.597 152.39 141.066 152.353 140.442C152.261 140.809 152.05 141.24 151.72 141.735C151.39 142.23 150.923 142.661 150.318 143.028C149.713 143.394 148.934 143.578 147.98 143.578ZM149.19 141.762C149.759 141.762 150.254 141.552 150.675 141.13C151.115 140.69 151.455 140.167 151.693 139.562C151.931 138.957 152.05 138.389 152.05 137.857V125.675C151.995 126.188 151.684 126.729 151.115 127.297C150.565 127.866 149.942 128.526 149.245 129.277C148.549 130.011 147.925 130.927 147.375 132.027C146.844 133.127 146.578 134.466 146.578 136.042C146.578 137.876 146.78 139.287 147.183 140.277C147.586 141.267 148.255 141.762 149.19 141.762ZM165.855 143.11L160.658 115.417H158.485V114.207H167.038V115.417H165.058L168.165 134.227L171.273 115.417H169.32V114.207H174.683V115.417H172.62L167.643 143.11H165.855ZM183.873 143.578C182.535 143.578 181.389 143.174 180.436 142.367C179.501 141.542 178.731 140.424 178.126 139.012C177.521 137.601 177.071 135.997 176.778 134.2C176.503 132.403 176.366 130.515 176.366 128.535C176.366 126.078 176.567 123.942 176.971 122.127C177.374 120.294 177.924 118.782 178.621 117.59C179.317 116.38 180.106 115.482 180.986 114.895C181.884 114.29 182.81 113.987 183.763 113.987C184.881 113.987 185.853 114.336 186.678 115.032C187.521 115.711 188.218 116.627 188.768 117.782C189.336 118.937 189.758 120.257 190.033 121.742C190.326 123.209 190.473 124.722 190.473 126.28C190.473 126.628 190.464 126.977 190.446 127.325C190.446 127.655 190.436 127.985 190.418 128.315H180.161V127.105H186.376C186.376 124.63 186.293 122.503 186.128 120.725C185.981 118.947 185.716 117.581 185.331 116.627C184.964 115.674 184.441 115.197 183.763 115.197C183.103 115.197 182.526 115.665 182.031 116.6C181.554 117.517 181.187 118.919 180.931 120.807C180.674 122.677 180.546 125.042 180.546 127.902C180.546 129.882 180.591 131.743 180.683 133.485C180.775 135.208 180.949 136.73 181.206 138.05C181.462 139.352 181.838 140.378 182.333 141.13C182.846 141.863 183.525 142.23 184.368 142.23C185.651 142.23 186.66 141.882 187.393 141.185C188.126 140.47 188.621 139.727 188.878 138.958L189.923 139.59C189.538 140.635 188.823 141.561 187.778 142.367C186.733 143.174 185.431 143.578 183.873 143.578ZM192.649 143V141.79H195.289V115.417H192.649V114.207H199.249L199.359 117.287C199.396 117.049 199.57 116.664 199.882 116.132C200.194 115.601 200.624 115.115 201.174 114.675C201.743 114.217 202.421 113.987 203.209 113.987C204.126 113.987 204.878 114.317 205.464 114.977C206.051 115.619 206.491 116.481 206.784 117.562C207.096 118.644 207.252 119.836 207.252 121.137C207.252 122.036 207.096 122.732 206.784 123.227C206.473 123.704 206.033 123.942 205.464 123.942C204.914 123.942 204.484 123.722 204.172 123.282C203.879 122.842 203.732 122.256 203.732 121.522C203.732 121.064 203.805 120.67 203.952 120.34C204.117 119.992 204.273 119.643 204.419 119.295C204.566 118.928 204.639 118.507 204.639 118.03C204.639 117.113 204.474 116.444 204.144 116.022C203.814 115.582 203.384 115.363 202.852 115.363C202.155 115.363 201.55 115.692 201.037 116.352C200.524 116.994 200.12 117.81 199.827 118.8C199.552 119.772 199.414 120.762 199.414 121.77V141.79H202.109V143H192.649ZM215.94 143.495C215.207 143.495 214.492 143.358 213.795 143.083C213.099 142.826 212.53 142.322 212.09 141.57C211.65 140.818 211.43 139.727 211.43 138.297V115.417H208.295V114.207H211.43C211.87 113.969 212.283 113.456 212.668 112.667C213.053 111.861 213.383 110.898 213.658 109.78C213.951 108.643 214.162 107.497 214.29 106.342H215.555V114.207H219.323V115.417H215.555V140.332C215.555 141.047 215.711 141.533 216.023 141.79C216.334 142.047 216.637 142.175 216.93 142.175C217.315 142.175 217.664 142.083 217.975 141.9C218.287 141.717 218.516 141.542 218.663 141.377L219.35 142.312C218.984 142.642 218.507 142.917 217.92 143.138C217.352 143.376 216.692 143.495 215.94 143.495Z" fill="#B85A25"/>
</svg>
